<svg width="21" height="22" viewBox="0 0 21 22" fill="none" xmlns="http://www.w3.org/2000/svg">
<path d="M9.00368 3.87756L1.59243 16.2501C1.43962 16.5147 1.35877 16.8147 1.35792 17.1203C1.35706 17.4258 1.43623 17.7263 1.58755 17.9918C1.73887 18.2572 1.95706 18.4785 2.22042 18.6334C2.48378 18.7884 2.78313 18.8717 3.08868 18.8751H17.9112C18.2167 18.8717 18.5161 18.7884 18.7794 18.6334C19.0428 18.4785 19.261 18.2572 19.4123 17.9918C19.5636 17.7263 19.6428 17.4258 19.6419 17.1203C19.6411 16.8147 19.5602 16.5147 19.4074 16.2501L11.9962 3.87756C11.8402 3.6204 11.6206 3.40779 11.3585 3.26023C11.0964 3.11267 10.8007 3.03516 10.4999 3.03516C10.1992 3.03516 9.90347 3.11267 9.64138 3.26023C9.3793 3.40779 9.15966 3.6204 9.00368 3.87756Z" stroke="#FF0B0B" stroke-width="2" stroke-linecap="round" stroke-linejoin="round"/>
<path d="M10.5 8.375V11.875" stroke="#FF0B0B" stroke-width="2" stroke-linecap="round" stroke-linejoin="round"/>
<path d="M10.5 15.375H10.5088" stroke="#FF0B0B" stroke-width="2" stroke-linecap="round" stroke-linejoin="round"/>
</svg>
