<svg width="20" height="20" viewBox="0 0 20 20" fill="none" xmlns="http://www.w3.org/2000/svg">
<g clip-path="url(#clip0_272_3508)">
<path d="M2.23133 10.3972V2.66164C2.23133 1.9741 2.79066 1.41473 3.47824 1.41473C4.06492 1.41473 4.55793 1.82211 4.69012 2.36875C4.15406 2.70176 3.7468 3.20043 3.52766 3.80266C3.26887 4.51367 3.30242 5.28281 3.62223 5.96852L3.89785 6.55965L9.03215 4.16547L8.75652 3.57438C8.4368 2.88867 7.8691 2.36852 7.15812 2.10973C6.75801 1.96402 6.33938 1.91102 5.92766 1.94949C5.61859 0.88832 4.63793 0.110352 3.47828 0.110352C2.07148 0.110352 0.927031 1.25484 0.927031 2.6616V10.3971H0V11.7014H0.944062C1.01555 13.0679 1.31805 14.1958 1.86395 15.134C2.34887 15.9674 3.01895 16.6218 3.85555 17.0791C4.04473 17.1825 4.24309 17.2755 4.44965 17.3587L3.2302 19.1577L4.30984 19.8896L5.7716 17.7333C6.27656 17.8245 6.81687 17.871 7.39133 17.871H12.6087C13.1832 17.871 13.7235 17.8245 14.2284 17.7333L15.6902 19.8896L16.7698 19.1577L15.5504 17.3587C15.757 17.2754 15.9553 17.1825 16.1445 17.0791C16.9811 16.6218 17.6512 15.9674 18.1361 15.134C18.682 14.1959 18.9845 13.0679 19.056 11.7014H20V10.3971H2.23133V10.3972ZM5.54352 3.38648C5.74898 3.29066 5.96836 3.24242 6.18844 3.24242C6.36469 3.24246 6.54148 3.27336 6.71203 3.33543C6.88016 3.3966 7.03344 3.48492 7.16707 3.5959L4.66035 4.76484C4.66121 4.59105 4.69211 4.41687 4.75332 4.24875C4.89293 3.86523 5.17355 3.55902 5.54352 3.38648ZM17.0087 14.478C16.2022 15.864 14.7219 16.5668 12.6087 16.5668H7.39129C5.27812 16.5668 3.79777 15.864 2.99129 14.478C2.56055 13.7378 2.31699 12.8245 2.25066 11.7015H17.7493C17.683 12.8245 17.4395 13.7378 17.0087 14.478Z" fill="black"/>
</g>
<defs>
<clipPath id="clip0_272_3508">
<rect width="20" height="20" fill="white"/>
</clipPath>
</defs>
</svg>
