<svg width="260" height="16" viewBox="0 0 260 16" fill="none" xmlns="http://www.w3.org/2000/svg">
<path d="M0.5 8H259.5" stroke="#AEAEAE" stroke-width="2"/>
<path d="M106.938 8H160.158" stroke="#1E1E1E" stroke-width="2"/>
<path d="M115.399 8C115.399 11.7153 111.775 15 106.938 15C102.101 15 98.4771 11.7153 98.4771 8C98.4771 4.28468 102.101 1 106.938 1C111.775 1 115.399 4.28468 115.399 8Z" fill="#1E1E1E" stroke="#FEFEFE" stroke-width="2"/>
<path d="M168.619 8C168.619 11.7153 164.994 15 160.157 15C155.321 15 151.696 11.7153 151.696 8C151.696 4.28468 155.321 1 160.157 1C164.994 1 168.619 4.28468 168.619 8Z" fill="#1E1E1E" stroke="#FEFEFE" stroke-width="2"/>
</svg>
