<svg width="86" height="86" viewBox="0 0 86 86" fill="none" xmlns="http://www.w3.org/2000/svg">
<path d="M67.2363 7.81836V29.7093" stroke="black" stroke-width="2" stroke-linecap="round" stroke-linejoin="round"/>
<path d="M56.2908 18.7637H78.1817" stroke="black" stroke-width="2" stroke-linecap="round" stroke-linejoin="round"/>
<path d="M50.7531 29.9048H13.3561C10.4056 29.9048 8.01367 32.2967 8.01367 35.2472V72.6442C8.01367 75.5947 10.4056 77.9866 13.3561 77.9866H50.7531C53.7036 77.9866 56.0955 75.5947 56.0955 72.6442V35.2472C56.0955 32.2967 53.7036 29.9048 50.7531 29.9048Z" stroke="black" stroke-width="2" stroke-linecap="round" stroke-linejoin="round"/>
<path d="M22.7053 48.603C24.9182 48.603 26.7121 46.8091 26.7121 44.5962C26.7121 42.3833 24.9182 40.5894 22.7053 40.5894C20.4924 40.5894 18.6985 42.3833 18.6985 44.5962C18.6985 46.8091 20.4924 48.603 22.7053 48.603Z" stroke="black" stroke-width="2" stroke-linecap="round" stroke-linejoin="round"/>
<path d="M56.0954 61.9591L42.7393 48.603L13.356 77.9864" stroke="black" stroke-width="2" stroke-linecap="round" stroke-linejoin="round"/>
</svg>
