<svg width="21" height="20" viewBox="0 0 21 20" fill="none" xmlns="http://www.w3.org/2000/svg">
<path d="M13.4982 6.66675C14.8243 6.66675 16.096 7.19353 17.0337 8.13121C17.9714 9.0689 18.4982 10.3407 18.4982 11.6667V17.5001H15.1648V11.6667C15.1648 11.2247 14.9892 10.8008 14.6767 10.4882C14.3641 10.1757 13.9402 10.0001 13.4982 10.0001C13.0561 10.0001 12.6322 10.1757 12.3197 10.4882C12.0071 10.8008 11.8315 11.2247 11.8315 11.6667V17.5001H8.49817V11.6667C8.49817 10.3407 9.02495 9.0689 9.96264 8.13121C10.9003 7.19353 12.1721 6.66675 13.4982 6.66675Z" fill="#FEFEFE"/>
<path d="M5.16475 7.5H1.83142V17.5H5.16475V7.5Z" fill="#FEFEFE"/>
<path d="M3.49809 5.00008C4.41856 5.00008 5.16475 4.25389 5.16475 3.33341C5.16475 2.41294 4.41856 1.66675 3.49809 1.66675C2.57761 1.66675 1.83142 2.41294 1.83142 3.33341C1.83142 4.25389 2.57761 5.00008 3.49809 5.00008Z" fill="#FEFEFE"/>
</svg>
