<svg width="21" height="20" viewBox="0 0 21 20" fill="none" xmlns="http://www.w3.org/2000/svg">
<path d="M13.498 6.6665C14.8241 6.6665 16.0959 7.19329 17.0336 8.13097C17.9713 9.06865 18.498 10.3404 18.498 11.6665V17.4998H15.1647V11.6665C15.1647 11.2245 14.9891 10.8006 14.6766 10.488C14.364 10.1754 13.9401 9.99984 13.498 9.99984C13.056 9.99984 12.6321 10.1754 12.3195 10.488C12.007 10.8006 11.8314 11.2245 11.8314 11.6665V17.4998H8.49805V11.6665C8.49805 10.3404 9.02483 9.06865 9.96251 8.13097C10.9002 7.19329 12.172 6.6665 13.498 6.6665Z" fill="#FEFEFE"/>
<path d="M5.16488 7.5H1.83154V17.5H5.16488V7.5Z" fill="#FEFEFE"/>
<path d="M3.49821 4.99984C4.41868 4.99984 5.16488 4.25365 5.16488 3.33317C5.16488 2.4127 4.41868 1.6665 3.49821 1.6665C2.57774 1.6665 1.83154 2.4127 1.83154 3.33317C1.83154 4.25365 2.57774 4.99984 3.49821 4.99984Z" fill="#FEFEFE"/>
</svg>
