<svg width="21" height="20" viewBox="0 0 21 20" fill="none" xmlns="http://www.w3.org/2000/svg">
<path d="M13.4985 6.6665C14.8246 6.6665 16.0964 7.19329 17.0341 8.13097C17.9718 9.06865 18.4985 10.3404 18.4985 11.6665V17.4998H15.1652V11.6665C15.1652 11.2245 14.9896 10.8006 14.677 10.488C14.3645 10.1754 13.9406 9.99984 13.4985 9.99984C13.0565 9.99984 12.6326 10.1754 12.32 10.488C12.0075 10.8006 11.8319 11.2245 11.8319 11.6665V17.4998H8.49854V11.6665C8.49854 10.3404 9.02532 9.06865 9.963 8.13097C10.9007 7.19329 12.1725 6.6665 13.4985 6.6665Z" fill="#FEFEFE"/>
<path d="M5.16488 7.5H1.83154V17.5H5.16488V7.5Z" fill="#FEFEFE"/>
<path d="M3.49821 4.99984C4.41868 4.99984 5.16488 4.25365 5.16488 3.33317C5.16488 2.4127 4.41868 1.6665 3.49821 1.6665C2.57774 1.6665 1.83154 2.4127 1.83154 3.33317C1.83154 4.25365 2.57774 4.99984 3.49821 4.99984Z" fill="#FEFEFE"/>
</svg>
