<svg width="21" height="20" viewBox="0 0 21 20" fill="none" xmlns="http://www.w3.org/2000/svg">
<path d="M13.4985 6.66663C14.8246 6.66663 16.0964 7.19341 17.0341 8.13109C17.9718 9.06877 18.4985 10.3405 18.4985 11.6666V17.5H15.1652V11.6666C15.1652 11.2246 14.9896 10.8007 14.677 10.4881C14.3645 10.1756 13.9406 9.99996 13.4985 9.99996C13.0565 9.99996 12.6326 10.1756 12.32 10.4881C12.0075 10.8007 11.8319 11.2246 11.8319 11.6666V17.5H8.49854V11.6666C8.49854 10.3405 9.02532 9.06877 9.963 8.13109C10.9007 7.19341 12.1725 6.66663 13.4985 6.66663Z" fill="#FEFEFE"/>
<path d="M5.16488 7.5H1.83154V17.5H5.16488V7.5Z" fill="#FEFEFE"/>
<path d="M3.49821 4.99996C4.41868 4.99996 5.16488 4.25377 5.16488 3.33329C5.16488 2.41282 4.41868 1.66663 3.49821 1.66663C2.57774 1.66663 1.83154 2.41282 1.83154 3.33329C1.83154 4.25377 2.57774 4.99996 3.49821 4.99996Z" fill="#FEFEFE"/>
</svg>
