<svg width="21" height="20" viewBox="0 0 21 20" fill="none" xmlns="http://www.w3.org/2000/svg">
<path d="M13.498 6.66666C14.8241 6.66666 16.0959 7.19344 17.0336 8.13112C17.9713 9.0688 18.498 10.3406 18.498 11.6667V17.5H15.1647V11.6667C15.1647 11.2246 14.9891 10.8007 14.6766 10.4881C14.364 10.1756 13.9401 9.99999 13.498 9.99999C13.056 9.99999 12.6321 10.1756 12.3195 10.4881C12.007 10.8007 11.8314 11.2246 11.8314 11.6667V17.5H8.49805V11.6667C8.49805 10.3406 9.02483 9.0688 9.96251 8.13112C10.9002 7.19344 12.172 6.66666 13.498 6.66666Z" fill="#FEFEFE"/>
<path d="M5.16488 7.5H1.83154V17.5H5.16488V7.5Z" fill="#FEFEFE"/>
<path d="M3.49821 4.99999C4.41868 4.99999 5.16488 4.2538 5.16488 3.33332C5.16488 2.41285 4.41868 1.66666 3.49821 1.66666C2.57774 1.66666 1.83154 2.41285 1.83154 3.33332C1.83154 4.2538 2.57774 4.99999 3.49821 4.99999Z" fill="#FEFEFE"/>
</svg>
