<svg width="21" height="20" viewBox="0 0 21 20" fill="none" xmlns="http://www.w3.org/2000/svg">
<path d="M13.498 6.66675C14.8241 6.66675 16.0959 7.19353 17.0336 8.13121C17.9713 9.0689 18.498 10.3407 18.498 11.6667V17.5001H15.1647V11.6667C15.1647 11.2247 14.9891 10.8008 14.6766 10.4882C14.364 10.1757 13.9401 10.0001 13.498 10.0001C13.056 10.0001 12.6321 10.1757 12.3195 10.4882C12.007 10.8008 11.8314 11.2247 11.8314 11.6667V17.5001H8.49805V11.6667C8.49805 10.3407 9.02483 9.0689 9.96251 8.13121C10.9002 7.19353 12.172 6.66675 13.498 6.66675Z" fill="#FEFEFE"/>
<path d="M5.16488 7.5H1.83154V17.5H5.16488V7.5Z" fill="#FEFEFE"/>
<path d="M3.49821 5.00008C4.41868 5.00008 5.16488 4.25389 5.16488 3.33341C5.16488 2.41294 4.41868 1.66675 3.49821 1.66675C2.57774 1.66675 1.83154 2.41294 1.83154 3.33341C1.83154 4.25389 2.57774 5.00008 3.49821 5.00008Z" fill="#FEFEFE"/>
</svg>
