<svg width="72" height="25" viewBox="0 0 72 25" fill="none" xmlns="http://www.w3.org/2000/svg">
<g clip-path="url(#clip0_316_3685)">
<path d="M4.5569 10.0085C4.9402 9.32709 5.57905 8.73083 6.47342 8.26235C7.3678 7.79387 8.30477 7.53833 9.32692 7.53833V11.201C7.70852 11.201 6.5586 11.4991 5.83458 12.0954C5.11056 12.6917 4.76985 13.7138 4.76985 15.2044V22.3169H0.638672V7.70869H4.5569V10.0085Z" fill="#1E1E1E"/>
<path d="M23.8925 14.7786L23.8499 15.7582H13.0322C13.1174 16.9081 13.5007 17.8025 14.1821 18.4413C14.8636 19.0376 15.7154 19.3783 16.7375 19.3783C17.4615 19.3783 18.1004 19.2079 18.654 18.8672C19.2077 18.5265 19.591 18.058 19.8891 17.4192L23.637 17.9728C23.1685 19.4209 22.3167 20.5708 21.0816 21.38C19.8465 22.1892 18.4411 22.6151 16.7801 22.6151C14.3951 22.6151 12.5211 21.9336 11.1157 20.6134C9.71024 19.2931 9.02881 17.4192 9.02881 15.0342C9.02881 12.6917 9.75283 10.8178 11.1583 9.45494C12.5637 8.09208 14.3951 7.41064 16.6949 7.41064C18.867 7.41064 20.6131 8.04949 21.9334 9.28458C23.2111 10.4771 23.8925 12.3084 23.8925 14.7786ZM16.6949 10.2641C14.6932 10.2641 13.5433 11.2011 13.16 13.075H19.8465C19.7613 12.1807 19.4206 11.4566 18.8244 10.9882C18.2707 10.5197 17.5467 10.2641 16.6949 10.2641Z" fill="#1E1E1E"/>
<path d="M33.731 7.41064C35.4772 7.41064 36.84 7.83654 37.777 8.73092C38.714 9.62529 39.1824 10.8604 39.1824 12.4788V22.2744H35.0939V13.3306C35.0939 12.3936 34.8383 11.7548 34.3698 11.3289C33.9013 10.903 33.2625 10.69 32.4959 10.69C32.07 10.69 31.6441 10.7326 31.2608 10.8604C30.8775 10.9882 30.5368 11.1585 30.2387 11.414C29.9405 11.6696 29.685 12.0529 29.5146 12.5214C29.3443 12.9899 29.2591 13.5435 29.2591 14.225V22.2744H25.1279V7.70877H29.2165V9.32717C30.2812 8.04949 31.7719 7.41064 33.731 7.41064Z" fill="#1E1E1E"/>
<path d="M47.0611 22.2742C45.6557 22.2742 44.5483 21.8909 43.7817 21.0817C43.0151 20.2725 42.6318 19.1652 42.6318 17.7171V10.8177H39.7783V7.66604H40.7153C41.5245 7.66604 42.1207 7.45309 42.5466 7.06979C42.9725 6.68648 43.1429 5.91987 43.1429 4.89772V2.9812H46.8482V7.70863H49.872V10.8602H46.8482V17.2912C46.8482 18.5689 47.4018 19.1652 48.5517 19.1652H49.872V22.2742H47.0611Z" fill="#1E1E1E"/>
<path d="M54.3869 8.94372H51.4482L52.8963 2.9812H57.1126L54.3869 8.94372Z" fill="#1E1E1E"/>
<path d="M65.7153 7.41064C67.4614 7.41064 68.8243 7.83654 69.7613 8.73092C70.6982 9.62529 71.1667 10.8604 71.1667 12.4788V22.2744H67.0781V13.3306C67.0781 12.3936 66.8226 11.7548 66.3541 11.3289C65.8856 10.903 65.2468 10.69 64.4802 10.69C64.0543 10.69 63.6284 10.7326 63.2451 10.8604C62.8618 10.9882 62.5211 11.1585 62.2229 11.414C61.9248 11.6696 61.6693 12.0529 61.4989 12.5214C61.3285 12.9899 61.2434 13.5435 61.2434 14.225V22.2744H57.1548V7.70877H61.2434V9.32717C62.3081 8.04949 63.7987 7.41064 65.7153 7.41064Z" fill="#1E1E1E"/>
</g>
<defs>
<clipPath id="clip0_316_3685">
<rect width="71.7206" height="25" fill="white"/>
</clipPath>
</defs>
</svg>
