<svg width="72" height="25" viewBox="0 0 72 25" fill="none" xmlns="http://www.w3.org/2000/svg">
<g clip-path="url(#clip0_602_3474)">
<path d="M4.69655 10.0085C5.07985 9.32709 5.71869 8.73083 6.61307 8.26235C7.50745 7.79387 8.44442 7.53833 9.46656 7.53833V11.201C7.84817 11.201 6.69825 11.4991 5.97423 12.0954C5.25021 12.6917 4.9095 13.7138 4.9095 15.2044V22.3169H0.77832V7.70869H4.69655V10.0085Z" fill="#1E1E1E"/>
<path d="M24.0322 14.7786L23.9896 15.7582H13.1719C13.257 16.9081 13.6403 17.8025 14.3218 18.4413C15.0032 19.0376 15.855 19.3783 16.8771 19.3783C17.6012 19.3783 18.24 19.2079 18.7937 18.8672C19.3473 18.5265 19.7306 18.058 20.0288 17.4192L23.7766 17.9728C23.3082 19.4209 22.4564 20.5708 21.2213 21.38C19.9862 22.1892 18.5807 22.6151 16.9197 22.6151C14.5347 22.6151 12.6608 21.9336 11.2553 20.6134C9.84989 19.2931 9.16846 17.4192 9.16846 15.0342C9.16846 12.6917 9.89248 10.8178 11.2979 9.45494C12.7034 8.09208 14.5347 7.41064 16.8346 7.41064C19.0066 7.41064 20.7528 8.04949 22.0731 9.28458C23.3507 10.4771 24.0322 12.3084 24.0322 14.7786ZM16.8346 10.2641C14.8329 10.2641 13.6829 11.2011 13.2996 13.075H19.9862C19.901 12.1807 19.5603 11.4566 18.964 10.9882C18.4104 10.5197 17.6863 10.2641 16.8346 10.2641Z" fill="#1E1E1E"/>
<path d="M33.8706 7.41064C35.6168 7.41064 36.9797 7.83654 37.9166 8.73092C38.8536 9.62529 39.3221 10.8604 39.3221 12.4788V22.2744H35.2335V13.3306C35.2335 12.3936 34.978 11.7548 34.5095 11.3289C34.041 10.903 33.4022 10.69 32.6355 10.69C32.2097 10.69 31.7838 10.7326 31.4005 10.8604C31.0172 10.9882 30.6764 11.1585 30.3783 11.414C30.0802 11.6696 29.8246 12.0529 29.6543 12.5214C29.4839 12.9899 29.3988 13.5435 29.3988 14.225V22.2744H25.2676V7.70877H29.3562V9.32717C30.4209 8.04949 31.9115 7.41064 33.8706 7.41064Z" fill="#1E1E1E"/>
<path d="M47.2008 22.2742C45.7953 22.2742 44.688 21.8909 43.9214 21.0817C43.1548 20.2725 42.7715 19.1652 42.7715 17.7171V10.8177H39.918V7.66604H40.8549C41.6641 7.66604 42.2604 7.45309 42.6863 7.06979C43.1122 6.68648 43.2825 5.91987 43.2825 4.89772V2.9812H46.9878V7.70863H50.0117V10.8602H46.9878V17.2912C46.9878 18.5689 47.5415 19.1652 48.6914 19.1652H50.0117V22.2742H47.2008Z" fill="#1E1E1E"/>
<path d="M54.5266 8.94372H51.5879L53.0359 2.9812H57.2523L54.5266 8.94372Z" fill="#1E1E1E"/>
<path d="M65.8549 7.41064C67.6011 7.41064 68.9639 7.83654 69.9009 8.73092C70.8379 9.62529 71.3064 10.8604 71.3064 12.4788V22.2744H67.2178V13.3306C67.2178 12.3936 66.9622 11.7548 66.4938 11.3289C66.0253 10.903 65.3864 10.69 64.6198 10.69C64.1939 10.69 63.768 10.7326 63.3847 10.8604C63.0014 10.9882 62.6607 11.1585 62.3626 11.414C62.0645 11.6696 61.8089 12.0529 61.6386 12.5214C61.4682 12.9899 61.383 13.5435 61.383 14.225V22.2744H57.2944V7.70877H61.383V9.32717C62.4478 8.04949 63.9384 7.41064 65.8549 7.41064Z" fill="#1E1E1E"/>
</g>
<defs>
<clipPath id="clip0_602_3474">
<rect width="71.7206" height="25" fill="white" transform="translate(0.139648)"/>
</clipPath>
</defs>
</svg>
