<svg width="72" height="25" viewBox="0 0 72 25" fill="none" xmlns="http://www.w3.org/2000/svg">
<g clip-path="url(#clip0_602_2613)">
<path d="M4.69679 10.0085C5.0801 9.32709 5.71894 8.73083 6.61332 8.26235C7.50769 7.79387 8.44466 7.53833 9.46681 7.53833V11.201C7.84841 11.201 6.6985 11.4991 5.97447 12.0954C5.25045 12.6917 4.90974 13.7138 4.90974 15.2044V22.3169H0.778564V7.70869H4.69679V10.0085Z" fill="#1E1E1E"/>
<path d="M24.0324 14.7785L23.9898 15.7581H13.1721C13.2573 16.908 13.6406 17.8023 14.322 18.4412C15.0035 19.0374 15.8552 19.3782 16.8774 19.3782C17.6014 19.3782 18.2403 19.2078 18.7939 18.8671C19.3476 18.5264 19.7309 18.0579 20.029 17.419L23.7769 17.9727C23.3084 19.4207 22.4566 20.5707 21.2215 21.3799C19.9864 22.1891 18.581 22.6149 16.92 22.6149C14.535 22.6149 12.661 21.9335 11.2556 20.6132C9.85013 19.293 9.1687 17.419 9.1687 15.034C9.1687 12.6916 9.89272 10.8177 11.2982 9.45482C12.7036 8.09195 14.535 7.41052 16.8348 7.41052C19.0069 7.41052 20.753 8.04936 22.0733 9.28446C23.351 10.477 24.0324 12.3083 24.0324 14.7785ZM16.8348 10.264C14.8331 10.264 13.6832 11.201 13.2999 13.0749H19.9864C19.9012 12.1805 19.5605 11.4565 18.9643 10.988C18.4106 10.5196 17.6866 10.264 16.8348 10.264Z" fill="#1E1E1E"/>
<path d="M33.8704 7.41052C35.6166 7.41052 36.9794 7.83642 37.9164 8.73079C38.8534 9.62517 39.3218 10.8603 39.3218 12.4787V22.2742H35.2333V13.3305C35.2333 12.3935 34.9777 11.7546 34.5092 11.3287C34.0408 10.9029 33.4019 10.6899 32.6353 10.6899C32.2094 10.6899 31.7835 10.7325 31.4002 10.8603C31.0169 10.988 30.6762 11.1584 30.3781 11.4139C30.0799 11.6695 29.8244 12.0528 29.654 12.5213C29.4837 12.9897 29.3985 13.5434 29.3985 14.2248V22.2742H25.2673V7.70865H29.3559V9.32705C30.4207 8.04936 31.9113 7.41052 33.8704 7.41052Z" fill="#1E1E1E"/>
<path d="M47.201 22.2742C45.7956 22.2742 44.6882 21.8909 43.9216 21.0817C43.155 20.2725 42.7717 19.1652 42.7717 17.7171V10.8177H39.9182V7.66604H40.8552C41.6644 7.66604 42.2606 7.45309 42.6865 7.06979C43.1124 6.68648 43.2828 5.91987 43.2828 4.89772V2.9812H46.9881V7.70863H50.0119V10.8602H46.9881V17.2912C46.9881 18.5689 47.5417 19.1652 48.6916 19.1652H50.0119V22.2742H47.201Z" fill="#1E1E1E"/>
<path d="M54.5263 8.94372H51.5876L53.0357 2.9812H57.252L54.5263 8.94372Z" fill="#1E1E1E"/>
<path d="M65.8552 7.41052C67.6013 7.41052 68.9642 7.83642 69.9011 8.73079C70.8381 9.62517 71.3066 10.8603 71.3066 12.4787V22.2742H67.218V13.3305C67.218 12.3935 66.9625 11.7546 66.494 11.3287C66.0255 10.9029 65.3867 10.6899 64.6201 10.6899C64.1942 10.6899 63.7683 10.7325 63.385 10.8603C63.0017 10.988 62.6609 11.1584 62.3628 11.4139C62.0647 11.6695 61.8092 12.0528 61.6388 12.5213C61.4684 12.9897 61.3833 13.5434 61.3833 14.2248V22.2742H57.2947V7.70865H61.3833V9.32705C62.448 8.04936 63.9386 7.41052 65.8552 7.41052Z" fill="#1E1E1E"/>
</g>
<defs>
<clipPath id="clip0_602_2613">
<rect width="71.7206" height="25" fill="white" transform="translate(0.139648)"/>
</clipPath>
</defs>
</svg>
