<svg width="72" height="25" viewBox="0 0 72 25" fill="none" xmlns="http://www.w3.org/2000/svg">
<g clip-path="url(#clip0_602_2543)">
<path d="M4.69679 10.0085C5.0801 9.32709 5.71894 8.73083 6.61332 8.26235C7.50769 7.79387 8.44466 7.53833 9.46681 7.53833V11.201C7.84841 11.201 6.6985 11.4991 5.97448 12.0954C5.25045 12.6917 4.90974 13.7138 4.90974 15.2044V22.3169H0.778564V7.70869H4.69679V10.0085Z" fill="#1E1E1E"/>
<path d="M24.0324 14.7786L23.9898 15.7581H13.1721C13.2573 16.908 13.6406 17.8024 14.322 18.4412C15.0035 19.0375 15.8552 19.3782 16.8774 19.3782C17.6014 19.3782 18.2403 19.2079 18.7939 18.8671C19.3476 18.5264 19.7309 18.0579 20.029 17.4191L23.7769 17.9728C23.3084 19.4208 22.4566 20.5707 21.2215 21.3799C19.9864 22.1891 18.581 22.615 16.92 22.615C14.535 22.615 12.661 21.9336 11.2556 20.6133C9.85013 19.293 9.1687 17.4191 9.1687 15.0341C9.1687 12.6917 9.89272 10.8177 11.2982 9.45488C12.7036 8.09201 14.535 7.41058 16.8348 7.41058C19.0069 7.41058 20.753 8.04942 22.0733 9.28452C23.351 10.477 24.0324 12.3084 24.0324 14.7786ZM16.8348 10.2641C14.8331 10.2641 13.6832 11.201 13.2999 13.075H19.9864C19.9012 12.1806 19.5605 11.4566 18.9643 10.9881C18.4106 10.5196 17.6866 10.2641 16.8348 10.2641Z" fill="#1E1E1E"/>
<path d="M33.8704 7.41058C35.6166 7.41058 36.9794 7.83648 37.9164 8.73086C38.8534 9.62523 39.3218 10.8603 39.3218 12.4787V22.2743H35.2333V13.3305C35.2333 12.3935 34.9777 11.7547 34.5092 11.3288C34.0408 10.9029 33.4019 10.69 32.6353 10.69C32.2094 10.69 31.7835 10.7326 31.4002 10.8603C31.0169 10.9881 30.6762 11.1585 30.3781 11.414C30.0799 11.6695 29.8244 12.0528 29.654 12.5213C29.4837 12.9898 29.3985 13.5435 29.3985 14.2249V22.2743H25.2673V7.70871H29.3559V9.32711C30.4207 8.04942 31.9113 7.41058 33.8704 7.41058Z" fill="#1E1E1E"/>
<path d="M47.201 22.2743C45.7956 22.2743 44.6882 21.891 43.9216 21.0818C43.155 20.2726 42.7717 19.1652 42.7717 17.7172V10.8177H39.9182V7.6661H40.8552C41.6644 7.6661 42.2606 7.45315 42.6865 7.06985C43.1124 6.68654 43.2828 5.91993 43.2828 4.89779V2.98126H46.9881V7.70869H50.0119V10.8603H46.9881V17.2913C46.9881 18.569 47.5417 19.1652 48.6916 19.1652H50.0119V22.2743H47.201Z" fill="#1E1E1E"/>
<path d="M54.5263 8.94378H51.5876L53.0357 2.98126H57.252L54.5263 8.94378Z" fill="#1E1E1E"/>
<path d="M65.8552 7.41058C67.6013 7.41058 68.9642 7.83648 69.9011 8.73086C70.8381 9.62523 71.3066 10.8603 71.3066 12.4787V22.2743H67.218V13.3305C67.218 12.3935 66.9625 11.7547 66.494 11.3288C66.0255 10.9029 65.3867 10.69 64.6201 10.69C64.1942 10.69 63.7683 10.7326 63.385 10.8603C63.0017 10.9881 62.6609 11.1585 62.3628 11.414C62.0647 11.6695 61.8092 12.0528 61.6388 12.5213C61.4684 12.9898 61.3833 13.5435 61.3833 14.2249V22.2743H57.2947V7.70871H61.3833V9.32711C62.448 8.04942 63.9386 7.41058 65.8552 7.41058Z" fill="#1E1E1E"/>
</g>
<defs>
<clipPath id="clip0_602_2543">
<rect width="71.7206" height="25" fill="white" transform="translate(0.139648)"/>
</clipPath>
</defs>
</svg>
