<svg width="72" height="25" viewBox="0 0 72 25" fill="none" xmlns="http://www.w3.org/2000/svg">
<g clip-path="url(#clip0_602_2557)">
<path d="M4.69679 10.0085C5.0801 9.32709 5.71894 8.73083 6.61332 8.26235C7.50769 7.79387 8.44466 7.53833 9.46681 7.53833V11.201C7.84841 11.201 6.6985 11.4991 5.97448 12.0954C5.25045 12.6917 4.90974 13.7138 4.90974 15.2044V22.3169H0.778564V7.70869H4.69679V10.0085Z" fill="#1E1E1E"/>
<path d="M24.0324 14.7786L23.9898 15.7582H13.1721C13.2573 16.9081 13.6406 17.8025 14.322 18.4413C15.0035 19.0376 15.8552 19.3783 16.8774 19.3783C17.6014 19.3783 18.2403 19.2079 18.7939 18.8672C19.3476 18.5265 19.7309 18.058 20.029 17.4192L23.7769 17.9728C23.3084 19.4209 22.4566 20.5708 21.2215 21.38C19.9864 22.1892 18.581 22.6151 16.92 22.6151C14.535 22.6151 12.661 21.9336 11.2556 20.6134C9.85013 19.2931 9.1687 17.4192 9.1687 15.0342C9.1687 12.6917 9.89272 10.8178 11.2982 9.45494C12.7036 8.09208 14.535 7.41064 16.8348 7.41064C19.0069 7.41064 20.753 8.04949 22.0733 9.28458C23.351 10.4771 24.0324 12.3084 24.0324 14.7786ZM16.8348 10.2641C14.8331 10.2641 13.6832 11.2011 13.2999 13.075H19.9864C19.9012 12.1807 19.5605 11.4566 18.9643 10.9882C18.4106 10.5197 17.6866 10.2641 16.8348 10.2641Z" fill="#1E1E1E"/>
<path d="M33.8704 7.41064C35.6166 7.41064 36.9794 7.83654 37.9164 8.73092C38.8534 9.62529 39.3218 10.8604 39.3218 12.4788V22.2744H35.2333V13.3306C35.2333 12.3936 34.9777 11.7548 34.5092 11.3289C34.0408 10.903 33.4019 10.69 32.6353 10.69C32.2094 10.69 31.7835 10.7326 31.4002 10.8604C31.0169 10.9882 30.6762 11.1585 30.3781 11.414C30.0799 11.6696 29.8244 12.0529 29.654 12.5214C29.4837 12.9899 29.3985 13.5435 29.3985 14.225V22.2744H25.2673V7.70877H29.3559V9.32717C30.4207 8.04949 31.9113 7.41064 33.8704 7.41064Z" fill="#1E1E1E"/>
<path d="M47.201 22.2742C45.7956 22.2742 44.6882 21.8909 43.9216 21.0817C43.155 20.2725 42.7717 19.1652 42.7717 17.7171V10.8177H39.9182V7.66604H40.8552C41.6644 7.66604 42.2606 7.45309 42.6865 7.06979C43.1124 6.68648 43.2828 5.91987 43.2828 4.89772V2.9812H46.9881V7.70863H50.0119V10.8602H46.9881V17.2912C46.9881 18.5689 47.5417 19.1652 48.6916 19.1652H50.0119V22.2742H47.201Z" fill="#1E1E1E"/>
<path d="M54.5263 8.94372H51.5876L53.0357 2.9812H57.252L54.5263 8.94372Z" fill="#1E1E1E"/>
<path d="M65.8552 7.41064C67.6013 7.41064 68.9642 7.83654 69.9011 8.73092C70.8381 9.62529 71.3066 10.8604 71.3066 12.4788V22.2744H67.218V13.3306C67.218 12.3936 66.9625 11.7548 66.494 11.3289C66.0255 10.903 65.3867 10.69 64.6201 10.69C64.1942 10.69 63.7683 10.7326 63.385 10.8604C63.0017 10.9882 62.6609 11.1585 62.3628 11.414C62.0647 11.6696 61.8092 12.0529 61.6388 12.5214C61.4684 12.9899 61.3833 13.5435 61.3833 14.225V22.2744H57.2947V7.70877H61.3833V9.32717C62.448 8.04949 63.9386 7.41064 65.8552 7.41064Z" fill="#1E1E1E"/>
</g>
<defs>
<clipPath id="clip0_602_2557">
<rect width="71.7206" height="25" fill="white" transform="translate(0.139648)"/>
</clipPath>
</defs>
</svg>
