<svg width="393" height="354" viewBox="0 0 393 354" fill="none" xmlns="http://www.w3.org/2000/svg">
<path fill-rule="evenodd" clip-rule="evenodd" d="M0 353.971V0.478516L5.63025 7.05676C5.72143 7.05676 5.8126 7.04964 5.90378 7.04251C5.99495 7.03539 6.08613 7.02827 6.17731 7.02827C8.01307 7.02827 9.85047 7.03005 11.6887 7.03183C17.2067 7.03717 22.732 7.04252 28.2427 6.99977C29.2327 6.99977 29.6755 7.28472 30.0142 8.31053C31.4458 12.4992 32.9265 16.6745 34.4058 20.8455C35.08 22.7466 35.754 24.6469 36.4228 26.5472C36.9238 26.8979 36.9623 27.4172 37.0008 27.9365C37.0124 28.0923 37.024 28.2481 37.048 28.3993C37.048 28.4421 37.0415 28.4848 37.035 28.5276C37.0285 28.5703 37.022 28.613 37.022 28.6558C37.2938 28.9903 37.4216 29.3976 37.5499 29.8064C37.6183 30.0244 37.6869 30.2429 37.7775 30.451C37.7514 29.8526 37.9598 29.3967 38.4548 29.1117L38.533 29.0547V28.9692C38.6111 28.5988 38.7413 28.2569 38.9758 27.9719C39.1748 27.5707 39.3738 27.1702 39.5726 26.77C40.7012 24.4983 41.8242 22.2379 42.9095 19.9364C43.2743 19.1385 43.6911 18.8821 44.4987 18.9106C45.8117 18.9562 47.1246 18.9288 48.4376 18.9015C48.7659 18.8946 49.0941 18.8878 49.4223 18.8821C49.4953 18.7823 49.5811 18.7804 49.6708 18.7784C49.7091 18.7775 49.7481 18.7766 49.7871 18.7681C49.734 18.7333 49.6766 18.7221 49.622 18.7115C49.5424 18.696 49.4687 18.6816 49.4223 18.5971C49.1879 16.1751 49.1879 16.1751 51.3241 16.1751C51.7934 16.1751 52.2627 16.1733 52.7317 16.1715C54.1368 16.1662 55.5383 16.1608 56.9251 16.2036C57.0237 16.2036 57.1404 16.1796 57.2622 16.1545C57.6875 16.067 58.1755 15.9666 58.1755 16.8305C58.1755 16.9852 58.192 17.154 58.2088 17.3265C58.2817 18.0748 58.3615 18.8928 57.1335 18.9391H59.2697C66.5119 18.9248 73.7477 18.9248 80.9834 18.9248C88.2191 18.9248 95.4548 18.9248 102.697 18.9106C103.453 18.9106 104 18.9961 104.443 19.9079C108.194 27.8864 112.023 35.8365 115.853 43.758C116.27 44.5844 116.322 45.0118 115.358 45.2397C115.019 45.3209 114.701 45.4775 114.382 45.6348C113.917 45.864 113.45 46.0946 112.909 46.0946C112.597 46.0661 112.466 46.2655 112.466 46.6075V51.4516C112.466 51.7363 112.681 51.7624 112.877 51.7861C112.897 51.7885 112.916 51.7909 112.935 51.7935C115.801 50.383 118.673 48.9725 121.545 47.562C124.417 46.1516 127.289 44.7411 130.155 43.3306C130.685 43.0729 131.2 42.7991 131.723 42.5212C131.894 42.4304 132.066 42.3391 132.239 42.2478C133.255 41.222 134.532 40.7661 135.86 40.4811C135.951 40.4384 136.036 40.3885 136.121 40.3386C136.205 40.2888 136.29 40.2389 136.381 40.1962C136.915 39.5119 137.63 39.2399 138.344 38.9684C138.641 38.8555 138.938 38.7427 139.221 38.6005C139.406 38.5015 139.59 38.3997 139.775 38.2978C140.76 37.7539 141.753 37.2057 142.894 37.0617C144.666 35.8935 146.489 36.2639 148.391 36.6913C150.314 37.1444 152.255 37.5241 154.193 37.9032C155.667 38.1917 157.14 38.4798 158.603 38.7999C159.515 38.9994 159.749 38.7714 159.697 37.8026C159.619 36.7198 159.645 35.6085 159.697 34.5257C159.749 33.5569 159.671 32.873 158.499 33.044C157.889 33.1301 157.918 32.7122 157.946 32.3061C157.955 32.1745 157.964 32.0442 157.952 31.9327C157.874 31.4198 157.952 31.0493 158.603 31.0493C162.094 31.0778 165.611 31.0778 169.128 31.0493C169.836 31.0493 169.823 31.4663 169.809 31.8958C169.807 31.9557 169.805 32.0158 169.805 32.0752C169.805 32.1188 169.806 32.1633 169.806 32.2081C169.812 32.6893 169.819 33.2028 169.128 33.0725C168.086 32.873 168.06 33.5284 168.086 34.3832C168.125 35.7515 168.12 37.1037 168.115 38.4519C168.113 38.9007 168.112 39.3489 168.112 39.7972C168.112 39.8417 168.111 39.8861 168.11 39.9302C168.103 40.3388 168.097 40.7202 168.685 40.823C172.15 41.4499 175.614 42.1338 179.053 42.8177C179.268 42.8826 179.496 42.9059 179.723 42.9291C180.292 42.9874 180.854 43.0448 181.189 43.758C181.58 44.3279 181.815 44.9548 181.841 45.6672C181.867 46.636 181.58 47.2629 180.564 47.0349C179.783 46.8354 179.731 47.2629 179.731 47.9467C179.731 56.4097 179.731 64.8726 179.704 73.3356C179.704 74.2759 180.043 74.4184 180.773 74.3899C182.454 74.3471 184.149 74.3525 185.838 74.3578C186.4 74.3596 186.961 74.3614 187.52 74.3614C187.963 74.3614 188.484 74.3614 188.536 74.9598C188.536 75.1368 188.577 75.2914 188.623 75.4633C188.628 75.4851 188.634 75.5072 188.64 75.5297C190.464 75.2162 191.167 74.1049 191.167 71.6259V43.3306C191.167 42.3059 190.83 41.4655 190.459 40.5402C190.418 40.4362 190.375 40.3312 190.333 40.2247C189.891 39.1419 189.317 38.6574 188.614 38.458H184.237L194.397 14.6079C194.574 14.2642 194.84 14.3091 195.094 14.3521C195.177 14.3661 195.258 14.3799 195.335 14.3799H273.723C274.467 15.0575 274.588 15.9678 274.71 16.8838C274.742 17.1234 274.774 17.3635 274.817 17.5998V17.6283L275.781 20.4778C276.25 21.1332 276.589 21.8455 276.511 22.6719L281.851 38.4865H276.849C276.459 39.2843 276.407 40.3101 276.407 41.2505V46.408C276.641 46.237 276.902 46.1516 277.214 46.1231C278.356 45.3015 279.494 44.4756 280.631 43.6504C282.451 42.3292 284.27 41.0097 286.098 39.7118C286.488 39.4553 286.567 39.1134 286.567 38.6574C286.54 36.8623 286.54 35.0671 286.567 33.2719C286.567 32.6451 286.462 32.2746 285.785 32.3601C284.72 32.5057 284.78 31.8919 284.839 31.2838C284.861 31.059 284.882 30.835 284.847 30.6504C284.665 29.7101 285.108 29.5676 285.863 29.5676C287.966 29.5866 290.08 29.5803 292.19 29.5739C293.243 29.5708 294.296 29.5676 295.346 29.5676C295.606 30.6219 295.684 31.6762 295.242 32.702C295.353 32.6413 295.478 32.5968 295.607 32.5512C295.72 32.5112 295.835 32.4704 295.945 32.4171C299.618 29.8241 303.291 27.2026 306.834 24.4101C307.955 23.5267 308.137 23.6407 309.179 24.6095C310.128 25.4858 311.162 26.2128 312.198 26.9415C312.443 27.1133 312.687 27.2851 312.93 27.459C313.23 27.6727 313.536 27.8864 313.842 28.1001C314.148 28.3138 314.454 28.5276 314.754 28.7413L321.501 20.1359C322.176 19.0546 323.03 18.0709 323.897 17.072C323.967 16.9916 324.036 16.9111 324.106 16.8305C324.341 16.5672 324.587 16.2462 324.846 15.9082C325.707 14.7826 326.714 13.4681 327.936 13.4681C340.57 13.4966 353.179 13.4966 365.813 13.4966H365.814C365.879 13.4966 365.943 13.498 366.008 13.4993C366.596 13.5119 367.154 13.5239 367.013 12.4708C366.961 12.0433 366.882 11.8154 366.414 11.8154C365.482 11.8561 365.576 11.2996 365.668 10.7604C365.704 10.5455 365.74 10.3332 365.71 10.1627C365.58 9.45147 366.045 9.48977 366.445 9.52272C366.526 9.52937 366.604 9.5358 366.674 9.5358H373.838C373.912 9.5358 373.992 9.52946 374.074 9.52298C374.484 9.49067 374.932 9.45527 374.802 10.1912C374.772 10.353 374.81 10.5609 374.849 10.7742C374.946 11.312 375.05 11.8847 374.099 11.8439C373.492 11.8193 373.486 12.1762 373.479 12.5855C373.478 12.6509 373.477 12.7175 373.473 12.7842C373.447 13.4396 373.76 13.5251 374.281 13.5251C375.135 13.5251 375.986 13.5328 376.835 13.5405C378.812 13.5584 380.78 13.5763 382.748 13.4966C384.024 13.4396 384.91 13.7815 385.509 15.0068C385.618 15.2262 385.792 15.4177 385.966 15.6106C386.041 15.6933 386.116 15.7762 386.186 15.8616C386.506 15.9548 386.599 16.238 386.693 16.5251C386.714 16.5894 386.736 16.6539 386.76 16.7165C387.724 18.1129 388.681 19.5021 389.638 20.8914C390.596 22.2804 391.553 23.6693 392.517 25.0654C392.693 25.3108 392.83 25.4699 393 25.4368V353.943H204.667H148.162C146.963 353.971 145.765 353.971 144.567 353.971C113.404 353.952 77.4612 353.959 43.1885 353.965C28.301 353.968 13.7287 353.971 0 353.971ZM37.7514 30.5079C37.7254 30.5079 37.6993 30.5079 37.6993 30.5364C37.6993 30.5364 37.6993 30.5649 37.7253 30.5649C37.7253 30.5507 37.7319 30.5436 37.7384 30.5364C37.7449 30.5293 37.7514 30.5222 37.7514 30.5079Z" fill="black"/>
</svg>
