<svg width="393" height="354" viewBox="0 0 393 354" fill="none" xmlns="http://www.w3.org/2000/svg">
<path fill-rule="evenodd" clip-rule="evenodd" d="M0 353.971V0.47876L5.63025 7.05701C5.72143 7.05701 5.8126 7.04988 5.90378 7.04276C5.99495 7.03563 6.08613 7.02851 6.17731 7.02851C8.01307 7.02851 9.85047 7.03029 11.6887 7.03207C17.2067 7.03741 22.732 7.04276 28.2427 7.00002C29.2327 7.00002 29.6755 7.28496 30.0142 8.31078C31.4458 12.4995 32.9265 16.6747 34.4058 20.8458C35.08 22.7469 35.754 24.6472 36.4228 26.5474C36.9238 26.8981 36.9623 27.4174 37.0008 27.9367C37.0124 28.0925 37.024 28.2483 37.048 28.3996C37.048 28.4423 37.0415 28.4851 37.035 28.5278C37.0285 28.5705 37.022 28.6133 37.022 28.656C37.2938 28.9906 37.4216 29.3978 37.5499 29.8067C37.6183 30.0247 37.6869 30.2431 37.7775 30.4512C37.7514 29.8528 37.9598 29.3969 38.4548 29.1119L38.533 29.055V28.9695C38.6111 28.599 38.7413 28.2571 38.9758 27.9722C39.1748 27.571 39.3738 27.1704 39.5726 26.7702C40.7012 24.4985 41.8242 22.2382 42.9095 19.9366C43.2743 19.1388 43.6911 18.8823 44.4987 18.9108C45.8117 18.9564 47.1246 18.9291 48.4376 18.9017C48.7659 18.8949 49.0941 18.888 49.4223 18.8823C49.4953 18.7825 49.5811 18.7806 49.6708 18.7786C49.7091 18.7777 49.7481 18.7769 49.7871 18.7683C49.734 18.7335 49.6766 18.7223 49.622 18.7117C49.5424 18.6962 49.4687 18.6818 49.4223 18.5974C49.1879 16.1753 49.1879 16.1753 51.3241 16.1753C51.7934 16.1753 52.2627 16.1735 52.7317 16.1718C54.1368 16.1664 55.5383 16.1611 56.9251 16.2038C57.0237 16.2038 57.1404 16.1798 57.2622 16.1548C57.6875 16.0672 58.1755 15.9668 58.1755 16.8307C58.1755 16.9855 58.192 17.1542 58.2088 17.3267C58.2817 18.075 58.3615 18.893 57.1335 18.9393H59.2697C66.5119 18.9251 73.7477 18.9251 80.9834 18.9251C88.2191 18.9251 95.4548 18.9251 102.697 18.9108C103.453 18.9108 104 18.9963 104.443 19.9081C108.194 27.8867 112.023 35.8367 115.853 43.7582C116.27 44.5846 116.322 45.012 115.358 45.24C115.019 45.3211 114.701 45.4778 114.382 45.6351C113.917 45.8643 113.45 46.0948 112.909 46.0948C112.597 46.0663 112.466 46.2658 112.466 46.6077V51.4518C112.466 51.7365 112.681 51.7626 112.877 51.7864C112.897 51.7888 112.916 51.7912 112.935 51.7938C115.801 50.3833 118.673 48.9728 121.545 47.5623C124.417 46.1518 127.289 44.7413 130.155 43.3308C130.685 43.0732 131.2 42.7993 131.723 42.5215C131.894 42.4306 132.066 42.3393 132.239 42.248C133.255 41.2222 134.532 40.7663 135.86 40.4813C135.951 40.4386 136.036 40.3887 136.121 40.3389C136.205 40.289 136.29 40.2391 136.381 40.1964C136.915 39.5122 137.63 39.2401 138.344 38.9687C138.641 38.8558 138.938 38.743 139.221 38.6007C139.406 38.5018 139.59 38.4 139.775 38.2981C140.76 37.7542 141.753 37.206 142.894 37.062C144.666 35.8937 146.489 36.2641 148.391 36.6915C150.314 37.1447 152.255 37.5243 154.193 37.9035C155.667 38.1919 157.14 38.4801 158.603 38.8002C159.515 38.9996 159.749 38.7717 159.697 37.8028C159.619 36.72 159.645 35.6087 159.697 34.526C159.749 33.5571 159.671 32.8733 158.499 33.0442C157.889 33.1303 157.918 32.7124 157.946 32.3063C157.955 32.1748 157.964 32.0445 157.952 31.9329C157.874 31.42 157.952 31.0496 158.603 31.0496C162.094 31.0781 165.611 31.0781 169.128 31.0496C169.836 31.0496 169.823 31.4665 169.809 31.896C169.807 31.9559 169.805 32.0161 169.805 32.0754C169.805 32.1191 169.806 32.1636 169.806 32.2084C169.812 32.6895 169.819 33.2031 169.128 33.0727C168.086 32.8733 168.06 33.5286 168.086 34.3835C168.125 35.7517 168.12 37.104 168.115 38.4522C168.113 38.9009 168.112 39.3492 168.112 39.7975C168.112 39.8419 168.111 39.8864 168.11 39.9305C168.103 40.339 168.097 40.7204 168.685 40.8233C172.15 41.4502 175.614 42.134 179.053 42.8179C179.268 42.8829 179.496 42.9062 179.723 42.9294C180.292 42.9876 180.854 43.0451 181.189 43.7582C181.58 44.3281 181.815 44.955 181.841 45.6674C181.867 46.6362 181.58 47.2631 180.564 47.0351C179.783 46.8357 179.731 47.2631 179.731 47.947C179.731 56.4099 179.731 64.8729 179.704 73.3358C179.704 74.2761 180.043 74.4186 180.773 74.3901C182.454 74.3474 184.149 74.3527 185.838 74.3581C186.4 74.3598 186.961 74.3616 187.52 74.3616C187.963 74.3616 188.484 74.3616 188.536 74.96C188.536 75.137 188.577 75.2916 188.623 75.4636C188.628 75.4854 188.634 75.5075 188.64 75.5299C190.464 75.2165 191.167 74.1052 191.167 71.6261V43.3308C191.167 42.3062 190.83 41.4658 190.459 40.5404C190.418 40.4365 190.375 40.3314 190.333 40.2249C189.891 39.1421 189.317 38.6577 188.614 38.4582H184.237L194.397 14.6081C194.574 14.2645 194.84 14.3094 195.094 14.3523C195.177 14.3663 195.258 14.3802 195.335 14.3802H273.723C274.467 15.0577 274.588 15.968 274.71 16.884C274.742 17.1237 274.774 17.3637 274.817 17.6001V17.6286L275.781 20.478C276.25 21.1334 276.589 21.8458 276.511 22.6721L281.851 38.4867H276.849C276.459 39.2846 276.407 40.3104 276.407 41.2507V46.4083C276.641 46.2373 276.902 46.1518 277.214 46.1233C278.356 45.3017 279.494 44.4759 280.631 43.6507C282.451 42.3295 284.27 41.0099 286.098 39.712C286.488 39.4555 286.567 39.1136 286.567 38.6577C286.54 36.8625 286.54 35.0673 286.567 33.2722C286.567 32.6453 286.462 32.2749 285.785 32.3603C284.72 32.506 284.78 31.8922 284.839 31.2841C284.861 31.0593 284.882 30.8352 284.847 30.6507C284.665 29.7103 285.108 29.5679 285.863 29.5679C287.966 29.5869 290.08 29.5805 292.19 29.5742C293.243 29.571 294.296 29.5679 295.346 29.5679C295.606 30.6222 295.684 31.6765 295.242 32.7023C295.353 32.6416 295.478 32.597 295.607 32.5514C295.72 32.5114 295.835 32.4706 295.945 32.4173C299.618 29.8243 303.291 27.2028 306.834 24.4103C307.955 23.527 308.137 23.641 309.179 24.6098C310.128 25.4861 311.162 26.213 312.198 26.9417C312.443 27.1135 312.687 27.2853 312.93 27.4593C313.23 27.673 313.536 27.8867 313.842 28.1004C314.148 28.3141 314.454 28.5278 314.754 28.7415L321.501 20.1361C322.176 19.0548 323.03 18.0712 323.897 17.0722C323.967 16.9918 324.036 16.9113 324.106 16.8307C324.341 16.5675 324.587 16.2464 324.846 15.9084C325.707 14.7828 326.714 13.4683 327.936 13.4683C340.57 13.4968 353.179 13.4968 365.813 13.4968H365.814C365.879 13.4968 365.943 13.4982 366.008 13.4996C366.596 13.5122 367.154 13.5241 367.013 12.471C366.961 12.0436 366.882 11.8156 366.414 11.8156C365.482 11.8564 365.576 11.2999 365.668 10.7607C365.704 10.5457 365.74 10.3335 365.71 10.1629C365.58 9.45171 366.045 9.49002 366.445 9.52296C366.526 9.52961 366.604 9.53605 366.674 9.53605H373.838C373.912 9.53605 373.992 9.5297 374.074 9.52323C374.484 9.49091 374.932 9.45552 374.802 10.1914C374.772 10.3533 374.81 10.5611 374.849 10.7745C374.946 11.3122 375.05 11.8849 374.099 11.8441C373.492 11.8195 373.486 12.1764 373.479 12.5858C373.478 12.6511 373.477 12.7178 373.473 12.7845C373.447 13.4398 373.76 13.5253 374.281 13.5253C375.135 13.5253 375.986 13.533 376.835 13.5407C378.812 13.5587 380.78 13.5765 382.748 13.4968C384.024 13.4398 384.91 13.7818 385.509 15.007C385.618 15.2265 385.792 15.418 385.966 15.6109C386.041 15.6935 386.116 15.7764 386.186 15.8619C386.506 15.955 386.599 16.2383 386.693 16.5253C386.714 16.5896 386.736 16.6541 386.76 16.7167C387.724 18.1131 388.681 19.5024 389.638 20.8916C390.596 22.2806 391.553 23.6696 392.517 25.0657C392.693 25.311 392.83 25.4701 393 25.437V353.943H204.667H148.162C146.963 353.972 145.765 353.972 144.567 353.972C113.404 353.952 77.4612 353.959 43.1885 353.965C28.301 353.968 13.7287 353.971 0 353.971ZM37.7514 30.5082C37.7254 30.5082 37.6993 30.5082 37.6993 30.5367C37.6993 30.5367 37.6993 30.5652 37.7253 30.5652C37.7253 30.5509 37.7319 30.5438 37.7384 30.5367C37.7449 30.5296 37.7514 30.5224 37.7514 30.5082Z" fill="black"/>
</svg>
