<svg width="973" height="80" viewBox="0 0 973 80" fill="none" xmlns="http://www.w3.org/2000/svg">
<path d="M970.909 36.3708C972.272 35.6584 972.082 34.6041 972.177 33.5498C972.177 33.4073 972.113 33.2934 972.05 33.1794C970.973 32.752 971.068 31.9256 971.258 31.0993C971.131 30.4439 971.29 29.703 970.497 29.2471C967.899 23.1777 965.238 17.1083 962.703 11.0105C962.291 9.98466 961.752 9.69971 960.548 9.69971C951.613 9.7567 942.646 9.72821 933.71 9.72821C932.982 9.72821 932.189 9.89917 931.809 9.10132C931.302 7.90454 930.225 7.30615 929.053 6.76475C929.021 6.73626 928.957 6.73626 928.926 6.70776C928.039 5.9669 927.246 4.79861 926.233 4.62765C925.028 4.39969 924.521 6.08088 923.381 6.53679C922.145 6.93572 921.448 7.84755 920.783 8.78788C920.276 9.58573 919.515 9.7567 918.533 9.7567C909.471 9.72821 900.409 9.7567 891.315 9.7567C890.649 9.7567 890.047 9.64272 889.699 10.4691C887.766 15.1992 885.77 19.9293 883.774 24.631C883.393 24.2035 883.045 23.7191 882.665 23.2632C882.633 22.9213 882.411 22.7503 882.063 22.6078C880.035 20.4992 877.975 18.3906 875.947 16.3105C875.63 15.9971 875.44 15.6266 875.44 15.1707C875.472 12.2357 875.44 9.30079 875.44 6.36583C875.44 5.90991 875.504 5.65346 876.169 5.53948C877.5 5.28303 876.676 4.25721 876.835 3.57334C876.993 2.86097 876.391 2.86097 875.821 2.86097C873.666 2.86097 871.48 2.94646 869.325 2.83248C867.741 2.74699 867.139 3.17441 867.392 4.59915C867.487 5.14055 867.392 5.65346 868.279 5.56797C868.723 5.53948 868.786 5.82443 868.786 6.13787C868.786 6.90723 868.786 7.67658 868.786 8.78788C867.329 7.22067 866.156 5.9384 864.984 4.68464C864.857 4.42818 864.731 4.22872 864.445 4.08624C864.16 3.85829 863.812 3.65882 863.717 3.28839C863.526 2.97495 863.336 2.57602 863.083 2.34807C862.227 1.6072 861.784 0.324938 860.231 0.410422C859.851 0.438917 858.33 2.57602 858.013 2.91796C857.284 3.68732 856.492 4.37119 855.732 5.11206C853.894 6.85024 852.246 8.75939 850.504 10.5546C846.955 14.2589 843.469 18.0202 839.984 21.753C838.336 23.5197 836.657 25.2863 835.041 27.0815C834.566 27.5944 834.344 27.4235 833.995 27.0245C831.651 24.232 829.338 21.468 826.993 18.6756C826.834 18.3336 826.771 17.9347 826.296 17.8207C826.011 17.5358 825.662 17.2793 825.472 16.9659C824.743 15.7406 823.666 15.3987 822.113 15.4557C818.691 15.5696 815.269 15.4841 811.815 15.4841C811.182 15.4841 810.802 15.3987 810.833 14.7433C810.865 14.2589 810.738 13.7745 811.594 13.803C813.21 13.8599 812.322 12.7202 812.449 12.1503C812.639 11.2669 811.815 11.4949 811.277 11.4949C808.362 11.4949 805.478 11.4949 802.563 11.4949C802.056 11.4949 801.201 11.2669 801.391 12.1218C801.518 12.7202 800.662 13.8315 802.246 13.7745C802.817 13.7745 802.912 14.0024 802.975 14.4298C803.165 15.5981 802.31 15.4557 801.518 15.4557C786.15 15.4557 770.814 15.4557 755.447 15.4272C753.514 15.4272 752.025 17.6497 750.789 18.7895C749.648 19.8723 748.507 20.9266 747.62 22.0949L739.414 30.7003C738.685 30.2729 737.924 29.8455 737.196 29.4181C735.643 28.5063 734.059 27.6514 732.633 26.5686C731.365 25.5998 731.144 25.4858 729.781 26.3691C725.472 29.1616 721.004 31.7831 716.537 34.3762C716.251 34.4901 715.934 34.5471 715.681 34.6611C716.22 33.6353 716.125 32.581 715.808 31.5267C711.974 31.5267 708.108 31.5552 704.274 31.5267C703.355 31.5267 702.817 31.6692 703.038 32.6095C703.197 33.2934 702.405 34.5186 704.179 34.3192C705.003 34.2337 705.13 34.6041 705.13 35.231C705.098 37.0262 705.098 38.8213 705.13 40.6165C705.13 41.0724 705.035 41.4144 704.559 41.6708C700.947 43.7794 697.367 45.945 693.755 48.0821C693.374 48.1106 693.057 48.1961 692.772 48.3671C692.772 46.6574 692.772 44.9192 692.772 43.2095C692.772 42.2692 692.836 41.2434 693.311 40.4455H699.395L692.899 24.631C692.994 23.8046 692.582 23.0922 692.012 22.4369L690.839 19.5874V19.5589C690.586 18.4191 690.649 17.1938 689.509 16.339C657.728 16.339 625.947 16.339 594.166 16.339C593.786 16.339 593.311 16.111 593.026 16.5669L580.668 40.4171H585.991C586.847 40.6165 587.544 41.1009 588.083 42.1837C588.59 43.238 589.097 44.1499 589.097 45.2897C589.097 54.7214 589.097 64.1532 589.097 73.585C589.097 76.064 588.241 77.1753 586.023 77.4887C585.96 77.2893 585.896 77.1183 585.896 76.9188C585.833 76.3205 585.199 76.3205 584.661 76.3205C581.936 76.3205 579.179 76.292 576.454 76.3489C575.567 76.3774 575.155 76.235 575.155 75.2946C575.187 66.8317 575.187 58.3687 575.187 49.9058C575.187 49.2219 575.25 48.7945 576.201 48.994C577.436 49.2219 577.785 48.595 577.753 47.6262C577.721 46.9139 577.436 46.287 576.961 45.7171C576.391 44.7198 575.282 45.0047 574.363 44.7768C570.18 44.0929 565.966 43.409 561.752 42.7821C560.96 42.6681 561.055 42.2122 561.055 41.7563C561.055 39.9611 561.086 38.166 561.023 36.3423C560.991 35.4875 561.023 34.8321 562.291 35.0315C563.209 35.174 563.114 34.5471 563.114 34.0342C563.114 33.5498 563.273 33.0084 562.291 33.0084C558.013 33.0369 553.735 33.0369 549.489 33.0084C548.697 33.0084 548.602 33.3789 548.697 33.8918C548.761 34.3477 548.381 35.117 549.363 35.0031C550.789 34.8321 550.884 35.516 550.82 36.4848C550.757 37.5676 550.725 38.6789 550.82 39.7617C550.884 40.7305 550.598 40.9585 549.489 40.759C545.37 40.0181 541.188 39.4482 537.069 38.6504C534.756 38.223 532.538 37.8525 530.383 39.0208C528.735 39.1918 527.341 39.9326 525.915 40.5595C524.743 41.0439 523.38 41.1864 522.462 42.1552C522.24 42.2407 522.05 42.3547 521.828 42.4402C520.212 42.7251 518.659 43.181 517.424 44.2069C516.568 44.5773 515.744 44.9477 514.889 45.2897C507.918 48.1106 500.915 50.9316 493.944 53.7526C493.691 53.7241 493.374 53.7241 493.374 53.4107C493.374 51.7865 493.374 50.1908 493.374 48.5666C493.374 48.2246 493.533 48.0252 493.913 48.0536C495.022 48.0536 495.877 47.3983 496.891 47.1988C498.064 46.9708 498 46.5434 497.493 45.7171C492.835 37.7955 488.178 29.8455 483.615 21.867C483.076 20.9551 482.411 20.8697 481.492 20.8697C463.875 20.8982 446.289 20.8697 428.672 20.8982C427.816 20.8982 426.929 20.8982 426.074 20.8982C427.911 20.8412 427.341 19.6159 427.341 18.7895C427.341 17.6782 426.359 18.1627 425.82 18.1627C423.571 18.1057 421.289 18.1342 419.008 18.1342C416.41 18.1342 416.41 18.1342 416.695 20.5562C416.79 20.6987 416.98 20.6417 417.138 20.7272C416.98 20.7557 416.821 20.6987 416.695 20.8412C414.699 20.8697 412.702 20.9266 410.706 20.8697C409.724 20.8412 409.217 21.0976 408.773 21.8955C407.221 24.6025 405.605 27.2525 403.989 29.931C403.704 30.2159 403.545 30.5579 403.45 30.9283V31.0138L403.355 31.0708C402.753 31.3557 402.5 31.8116 402.531 32.41C402.214 31.8116 402.119 31.1278 401.612 30.6149C401.612 30.5294 401.644 30.4439 401.644 30.3584C401.517 29.703 401.676 28.9622 400.884 28.5063C398.285 22.4369 395.624 16.3675 393.089 10.2696C392.677 9.2438 392.138 8.95885 390.934 8.95885C381.999 9.01584 373.032 8.98734 364.096 8.98734C363.875 8.98734 363.653 9.01584 363.431 9.01584L356.46 2.31957L349.521 8.98734C349.331 9.01584 349.109 9.01584 348.887 9.01584C339.825 8.98734 330.763 9.01584 321.669 9.01584C321.004 9.01584 320.402 8.90186 320.053 9.72821C317.867 15.0567 315.617 20.3568 313.399 25.6568C311.973 25.2863 311.371 24.1466 310.579 23.2062C310.548 22.8643 310.326 22.6933 309.977 22.5508C307.949 20.4422 305.89 18.3336 303.862 16.2535C303.545 15.9401 303.355 15.5696 303.355 15.1137C303.387 12.1788 303.355 9.2438 303.355 6.30884C303.355 5.85292 303.418 5.59647 304.084 5.48249C305.415 5.22604 304.591 4.20022 304.749 3.51635C304.908 2.80398 304.306 2.80398 303.735 2.80398C301.581 2.80398 299.394 2.88947 297.24 2.77549C295.655 2.69 295.053 3.11742 295.307 4.54216C295.402 5.08356 295.307 5.59647 296.194 5.51098C296.638 5.48249 296.701 5.76744 296.701 6.08088C296.701 6.85024 296.701 7.6196 296.701 8.73089C295.243 7.16368 294.071 5.88141 292.899 4.62765C292.772 4.37119 292.645 4.17173 292.36 4.02926C292.075 3.8013 291.726 3.60183 291.631 3.2314C291.441 2.91796 291.251 2.51903 290.998 2.29108C290.142 1.55021 289.698 0.267948 288.146 0.353433C287.766 0.381927 286.245 2.51903 285.928 2.86097C285.199 3.63033 284.407 4.3142 283.646 5.05507C281.809 6.79325 280.161 8.7024 278.418 10.4976C274.87 14.2019 271.384 17.9632 267.899 21.696C266.251 23.4627 264.572 25.2294 262.956 27.0245C262.48 27.5374 262.259 27.3665 261.91 26.9675C259.565 24.175 257.252 21.4111 254.908 18.6186C254.749 18.2766 254.686 17.8777 254.21 17.7637C253.925 17.4788 253.577 17.2223 253.387 16.9089C252.658 15.6836 251.581 15.3417 250.028 15.3987C246.606 15.5126 243.184 15.4272 239.73 15.4272C239.096 15.4272 238.716 15.3417 238.748 14.6863C238.779 14.2019 238.653 13.7175 239.508 13.746C241.124 13.803 240.237 12.6632 240.364 12.0933C240.554 11.2099 239.73 11.4379 239.191 11.4379C236.276 11.4379 233.393 11.4379 230.478 11.4379C229.971 11.4379 229.115 11.2099 229.305 12.0648C229.432 12.6632 228.577 13.7745 230.161 13.7175C230.731 13.7175 230.826 13.9454 230.89 14.3729C231.08 15.5411 230.224 15.3987 229.432 15.3987C214.065 15.3987 198.729 15.3987 183.361 15.3702C181.428 15.3702 179.939 17.5928 178.703 18.7325C176.454 20.8127 174.331 22.8928 173.919 25.6283C173.792 25.3433 173.634 25.0584 173.507 24.8019C173.887 23.6621 173.349 22.7788 172.588 21.9525C172.113 21.0976 171.796 20.1858 171.574 19.2455C171.321 18.1057 171.384 16.8804 170.243 16.0255C138.463 16.0255 106.682 16.0255 74.901 16.0255C74.5208 16.0255 74.0455 15.7976 73.7603 16.2535C71.9226 20.5562 70.1165 24.7734 68.5005 29.1616C67.9935 30.5579 67.4866 31.9541 66.9479 33.3219C66.9479 33.3504 66.8212 33.7493 66.6944 34.2052C66.2825 34.7466 66.4409 36.0574 65.0785 35.345C65.0151 35.288 64.9834 35.2595 64.92 35.231C64.9834 34.0627 60.7375 32.353 59.7553 31.7831C57.7907 30.6434 55.8579 29.5036 53.8934 28.3638C52.3408 27.4519 50.7565 26.5971 49.3307 25.5143C48.0632 24.5455 47.8414 24.4315 46.479 25.3148C42.1697 28.1073 37.702 30.7288 33.2343 33.3219C32.9492 33.4358 32.6323 33.4928 32.3788 33.6068C32.9175 32.581 32.8224 31.5267 32.5056 30.4724C28.6716 30.4724 24.8059 30.5009 20.972 30.4724C20.0531 30.4724 19.5144 30.6149 19.7362 31.5552C19.8946 32.2391 19.1025 33.4643 20.8769 33.2649C21.7007 33.1794 21.8275 33.5498 21.8275 34.1767C21.7958 35.9719 21.7958 37.767 21.8275 39.5622C21.8275 40.0181 21.7324 40.3601 21.2571 40.6165C17.645 42.7251 14.0645 44.8907 10.4523 47.0278C9.69185 47.0563 9.18488 47.4553 8.83634 48.0252C8.07588 48.5096 7.28374 48.994 6.55497 49.4784C5.6044 50.1338 5.31922 50.9886 5.8262 51.9574C6.33317 52.9263 7.157 52.8693 8.04419 52.3849C8.26599 52.2709 8.42442 52.4703 8.55117 52.6128C8.39274 60.3919 8.42442 68.1709 8.51948 75.95C8.13925 76.4344 7.56891 76.235 7.06194 76.2635C5.44597 76.292 3.79831 76.2635 2.18234 76.2635C0.788169 76.2635 0.883225 77.1753 0.819853 78.0586C0.756482 79.1699 1.58031 78.771 2.18234 78.771C2.721 78.7995 3.22797 78.828 3.76662 78.828C27.4992 78.828 51.2318 78.828 74.9961 78.828C152.753 78.828 230.51 78.828 308.266 78.828C310.326 78.828 312.385 78.7995 314.445 78.771C314.762 78.771 315.079 78.771 315.396 78.771C315.934 78.7995 316.441 78.828 316.98 78.828C346.479 78.828 375.947 78.828 405.446 78.828C461.625 78.828 517.804 78.828 573.983 78.8565C575.44 78.8565 576.898 78.8565 578.355 78.828C601.264 78.828 624.173 78.828 647.081 78.828C724.521 78.828 801.93 78.828 879.369 78.828C879.433 78.8565 879.528 78.885 879.623 78.885C880.035 78.8565 880.415 78.828 880.827 78.828C882.728 78.828 884.629 78.7995 886.53 78.771C887.037 78.771 887.544 78.771 888.083 78.771C913.083 78.714 938.115 78.7425 963.115 78.7425C963.748 78.7425 964.382 78.714 964.952 79.056C965.428 79.1984 965.935 79.1984 966.283 78.885C966.378 78.7995 966.442 78.7425 966.537 78.657L971.543 39.5907L969.23 39.4482C969.42 39.1633 969.61 38.8498 969.8 38.5649C970.181 37.9095 970.149 36.7697 970.909 36.3708ZM66.3776 35.8009C66.3776 35.8294 66.3776 35.8864 66.3776 35.9149C66.3459 35.9434 66.3142 35.9719 66.2825 35.9719C66.3142 35.9149 66.3459 35.8579 66.3776 35.8009ZM402.436 32.4955C402.436 32.467 402.468 32.467 402.5 32.467C402.5 32.4955 402.468 32.4955 402.468 32.524C402.436 32.524 402.436 32.4955 402.436 32.4955Z" fill="black"/>
</svg>
