<svg width="86" height="86" viewBox="0 0 86 86" fill="none" xmlns="http://www.w3.org/2000/svg">
<path d="M67.2365 7.81812V29.709" stroke="black" stroke-width="2" stroke-linecap="round" stroke-linejoin="round"/>
<path d="M56.291 18.7637H78.1819" stroke="black" stroke-width="2" stroke-linecap="round" stroke-linejoin="round"/>
<path d="M50.7531 29.9045H13.3561C10.4056 29.9045 8.01367 32.2964 8.01367 35.247V72.6439C8.01367 75.5945 10.4056 77.9864 13.3561 77.9864H50.7531C53.7036 77.9864 56.0955 75.5945 56.0955 72.6439V35.247C56.0955 32.2964 53.7036 29.9045 50.7531 29.9045Z" stroke="black" stroke-width="2" stroke-linecap="round" stroke-linejoin="round"/>
<path d="M22.7053 48.603C24.9182 48.603 26.7121 46.8091 26.7121 44.5962C26.7121 42.3833 24.9182 40.5894 22.7053 40.5894C20.4924 40.5894 18.6985 42.3833 18.6985 44.5962C18.6985 46.8091 20.4924 48.603 22.7053 48.603Z" stroke="black" stroke-width="2" stroke-linecap="round" stroke-linejoin="round"/>
<path d="M56.0955 61.9591L42.7394 48.603L13.3561 77.9864" stroke="black" stroke-width="2" stroke-linecap="round" stroke-linejoin="round"/>
</svg>
