<svg width="1440" height="277" viewBox="0 0 1440 277" fill="none" xmlns="http://www.w3.org/2000/svg">
<path d="M1508.16 65.4315C1510.36 64.1547 1510.05 62.265 1510.21 60.3753C1510.21 60.12 1510.1 59.9157 1510 59.7114C1508.26 58.9453 1508.41 57.4642 1508.72 55.9831C1508.52 54.8084 1508.77 53.4805 1507.49 52.6633C1503.3 41.7848 1499 30.9063 1494.9 19.9767C1494.24 18.1381 1493.37 17.6274 1491.42 17.6274C1476.99 17.7295 1462.5 17.6784 1448.07 17.6784C1446.89 17.6784 1445.61 17.9849 1445 16.5548C1444.18 14.4098 1442.44 13.3373 1440.54 12.3669C1440.49 12.3158 1440.39 12.3158 1440.34 12.2647C1438.9 10.9368 1437.63 8.84284 1435.99 8.53641C1434.04 8.12783 1433.22 11.1411 1431.38 11.9583C1429.38 12.6733 1428.26 14.3076 1427.18 15.993C1426.36 17.4231 1425.14 17.7295 1423.55 17.7295C1408.91 17.6784 1394.27 17.7295 1379.58 17.7295C1378.51 17.7295 1377.53 17.5252 1376.97 19.0063C1373.85 27.4844 1370.62 35.9625 1367.4 44.3895C1366.78 43.6234 1366.22 42.7552 1365.61 41.938C1365.56 41.3252 1365.2 41.0187 1364.63 40.7634C1361.36 36.984 1358.03 33.2046 1354.76 29.4763C1354.24 28.9145 1353.94 28.2505 1353.94 27.4334C1353.99 22.1729 1353.94 16.9123 1353.94 11.6518C1353.94 10.8347 1354.04 10.375 1355.11 10.1707C1357.26 9.71108 1355.93 7.87246 1356.19 6.64671C1356.44 5.36989 1355.47 5.36989 1354.55 5.36989C1351.07 5.36989 1347.54 5.52311 1344.06 5.31882C1341.5 5.1656 1340.53 5.93169 1340.94 8.48534C1341.09 9.45572 1340.94 10.375 1342.37 10.2218C1343.09 10.1707 1343.19 10.6815 1343.19 11.2433C1343.19 12.6222 1343.19 14.0012 1343.19 15.993C1340.83 13.184 1338.94 10.8858 1337.05 8.63855C1336.84 8.1789 1336.64 7.82139 1336.18 7.56602C1335.71 7.15744 1335.15 6.79993 1335 6.13598C1334.69 5.57418 1334.38 4.85917 1333.97 4.45058C1332.59 3.12269 1331.88 0.824412 1329.37 0.977631C1328.75 1.0287 1326.3 4.85916 1325.78 5.47204C1324.61 6.85101 1323.33 8.07675 1322.1 9.40465C1319.13 12.5201 1316.47 15.942 1313.65 19.1596C1307.92 25.799 1302.29 32.5406 1296.66 39.2312C1294 42.3977 1291.29 45.5642 1288.68 48.7818C1287.91 49.7011 1287.55 49.3947 1286.99 48.6797C1283.2 43.6745 1279.46 38.7205 1275.67 33.7153C1275.42 33.1024 1275.32 32.3874 1274.55 32.1831C1274.09 31.6724 1273.52 31.2127 1273.22 30.6509C1272.04 28.4548 1270.3 27.8419 1267.79 27.9441C1262.26 28.1484 1256.74 27.9952 1251.16 27.9952C1250.13 27.9952 1249.52 27.8419 1249.57 26.6673C1249.62 25.799 1249.42 24.9308 1250.8 24.9819C1253.41 25.084 1251.98 23.0411 1252.18 22.0196C1252.49 20.4364 1251.16 20.845 1250.29 20.845C1245.58 20.845 1240.92 20.845 1236.21 20.845C1235.39 20.845 1234.01 20.4364 1234.32 21.9686C1234.52 23.0411 1233.14 25.0329 1235.7 24.9308C1236.62 24.9308 1236.77 25.3394 1236.88 26.1055C1237.18 28.1994 1235.8 27.9441 1234.52 27.9441C1209.7 27.9441 1184.92 27.9441 1160.1 27.893C1156.97 27.893 1154.57 31.8767 1152.57 33.9196C1150.73 35.8604 1148.89 37.7501 1147.45 39.8441L1134.2 55.268C1133.02 54.5019 1131.79 53.7359 1130.61 52.9698C1128.11 51.3354 1125.55 49.8033 1123.24 47.8625C1121.2 46.126 1120.84 45.9217 1118.64 47.505C1111.68 52.5101 1104.46 57.2088 1097.24 61.8564C1096.78 62.0607 1096.27 62.1629 1095.86 62.3672C1096.73 60.5285 1096.58 58.6388 1096.06 56.7492C1089.87 56.7492 1083.63 56.8002 1077.43 56.7492C1075.95 56.7492 1075.08 57.0045 1075.44 58.6899C1075.69 59.9157 1074.41 62.1118 1077.28 61.7543C1078.61 61.6011 1078.81 62.265 1078.81 63.3886C1078.76 66.6062 1078.76 69.8238 1078.81 73.0414C1078.81 73.8585 1078.66 74.4714 1077.89 74.9311C1072.06 78.7105 1066.27 82.592 1060.44 86.4225C1059.82 86.4735 1059.31 86.6268 1058.85 86.9332C1058.85 83.8688 1058.85 80.7534 1058.85 77.689C1058.85 76.0036 1058.95 74.165 1059.72 72.7349H1069.55L1059.06 44.3895C1059.21 42.9084 1058.54 41.6316 1057.62 40.4569L1055.73 35.3496V35.2986C1055.32 33.2557 1055.42 31.0595 1053.58 29.5273C1002.24 29.5273 950.901 29.5273 899.562 29.5273C898.948 29.5273 898.18 29.1188 897.72 29.9359L877.757 72.6839H886.356C887.738 73.0414 888.864 73.9096 889.735 75.8504C890.554 77.7401 891.372 79.3744 891.372 81.4173C891.372 98.3224 891.372 115.228 891.372 132.133C891.372 136.576 889.991 138.568 886.408 139.13C886.305 138.772 886.203 138.466 886.203 138.108C886.1 137.036 885.077 137.036 884.207 137.036C879.805 137.036 875.352 136.985 870.95 137.087C869.516 137.138 868.851 136.882 868.851 135.197C868.902 120.028 868.902 104.86 868.902 89.6911C868.902 88.4654 869.004 87.6993 870.54 88.0568C872.536 88.4654 873.099 87.3418 873.048 85.6053C872.997 84.3285 872.536 83.2049 871.768 82.1834C870.847 80.3959 869.056 80.9066 867.571 80.498C860.815 79.2723 854.007 78.0465 847.199 76.9229C845.92 76.7186 846.073 75.9015 846.073 75.0843C846.073 71.8667 846.124 68.6491 846.022 65.3805C845.971 63.8483 846.022 62.6736 848.07 63.0311C849.554 63.2865 849.4 62.1629 849.4 61.2436C849.4 60.3753 849.656 59.4049 848.07 59.4049C841.159 59.456 834.249 59.456 827.391 59.4049C826.111 59.4049 825.957 60.0689 826.111 60.9882C826.213 61.8054 825.599 63.1843 827.186 62.98C829.489 62.6736 829.643 63.8993 829.54 65.6358C829.438 67.5766 829.387 69.5684 829.54 71.5092C829.643 73.2457 829.182 73.6543 827.391 73.2967C820.736 71.9688 813.98 70.9474 807.326 69.5174C803.589 68.7513 800.006 68.0873 796.526 70.1813C793.864 70.4877 791.612 71.8156 789.309 72.9392C787.415 73.8075 785.214 74.0628 783.729 75.7993C783.371 75.9525 783.064 76.1568 782.706 76.31C780.095 76.8208 777.587 77.6379 775.591 79.4766C774.209 80.1405 772.878 80.8044 771.496 81.4173C760.235 86.4735 748.923 91.5297 737.662 96.586C737.253 96.5349 736.741 96.5349 736.741 95.9731C736.741 93.0619 736.741 90.2018 736.741 87.2907C736.741 86.6778 736.997 86.3203 737.611 86.3714C739.403 86.3714 740.785 85.1967 742.422 84.8392C744.316 84.4306 744.214 83.6645 743.395 82.1834C735.871 67.9852 728.346 53.7359 720.976 39.4355C720.106 37.8011 719.031 37.6479 717.546 37.6479C689.087 37.699 660.679 37.6479 632.22 37.699C630.838 37.699 629.405 37.699 628.023 37.699C630.991 37.5968 630.07 35.4007 630.07 33.9196C630.07 31.9278 628.483 32.796 627.613 32.796C623.979 32.6939 620.294 32.7449 616.608 32.7449C612.411 32.7449 612.411 32.7449 612.872 37.0861C613.025 37.3415 613.332 37.2393 613.588 37.3926C613.332 37.4436 613.076 37.3415 612.872 37.5968C609.647 37.6479 606.422 37.7501 603.198 37.6479C601.611 37.5968 600.792 38.0565 600.075 39.4865C597.567 44.3385 594.957 49.0882 592.346 53.8891C591.886 54.3998 591.63 55.0127 591.476 55.6766V55.8298L591.323 55.932C590.35 56.4427 589.941 57.2599 589.992 58.3324C589.48 57.2599 589.326 56.0341 588.507 55.1148C588.507 54.9616 588.559 54.8084 588.559 54.6552C588.354 53.4805 588.61 52.1526 587.33 51.3354C583.133 40.4569 578.833 29.5784 574.739 18.6488C574.073 16.8102 573.203 16.2995 571.258 16.2995C556.824 16.4016 542.338 16.3506 527.904 16.3506C527.545 16.3506 527.187 16.4016 526.829 16.4016L515.568 4.39951L504.358 16.3506C504.051 16.4016 503.693 16.4016 503.335 16.4016C488.695 16.3506 474.056 16.4016 459.366 16.4016C458.291 16.4016 457.319 16.1973 456.756 17.6784C453.224 27.2291 449.59 36.7286 446.007 46.2282C443.703 45.5642 442.731 43.5213 441.451 41.8359C441.4 41.223 441.042 40.9166 440.479 40.6612C437.203 36.8818 433.876 33.1024 430.6 29.3741C430.088 28.8123 429.781 28.1484 429.781 27.3312C429.832 22.0707 429.781 16.8102 429.781 11.5497C429.781 10.7325 429.883 10.2729 430.958 10.0686C433.108 9.60894 431.777 7.77032 432.033 6.54457C432.289 5.26775 431.316 5.26775 430.395 5.26775C426.915 5.26775 423.383 5.42097 419.902 5.21667C417.343 5.06346 416.37 5.82955 416.78 8.38319C416.933 9.35357 416.78 10.2729 418.213 10.1197C418.93 10.0686 419.032 10.5793 419.032 11.1411C419.032 12.5201 419.032 13.8991 419.032 15.8909C416.677 13.0819 414.784 10.7836 412.89 8.53641C412.685 8.07675 412.48 7.71924 412.02 7.46388C411.559 7.0553 410.996 6.69779 410.842 6.03384C410.535 5.47204 410.228 4.75702 409.819 4.34844C408.437 3.02054 407.72 0.722266 405.212 0.875485C404.598 0.926558 402.141 4.75702 401.629 5.36989C400.452 6.74886 399.172 7.97461 397.944 9.3025C394.975 12.4179 392.313 15.8398 389.498 19.0574C383.765 25.6969 378.135 32.4385 372.504 39.129C369.843 42.2955 367.13 45.4621 364.519 48.6797C363.752 49.599 363.393 49.2925 362.83 48.5775C359.042 43.5724 355.306 38.6183 351.518 33.6132C351.262 33.0003 351.16 32.2853 350.392 32.081C349.931 31.5703 349.368 31.1106 349.061 30.5488C347.884 28.3527 346.144 27.7398 343.636 27.8419C338.108 28.0462 332.579 27.893 327 27.893C325.977 27.893 325.362 27.7398 325.414 26.5651C325.465 25.6969 325.26 24.8286 326.642 24.8797C329.252 24.9819 327.819 22.9389 328.024 21.9175C328.331 20.3342 327 20.7428 326.13 20.7428C321.421 20.7428 316.763 20.7428 312.054 20.7428C311.235 20.7428 309.853 20.3342 310.16 21.8664C310.365 22.9389 308.983 24.9308 311.542 24.8286C312.464 24.8286 312.617 25.2372 312.72 26.0033C313.027 28.0973 311.645 27.8419 310.365 27.8419C285.54 27.8419 260.766 27.8419 235.941 27.7909C232.819 27.7909 230.413 31.7745 228.417 33.8175C224.783 37.5458 221.353 41.2741 220.688 46.1771C220.483 45.6664 220.227 45.1556 220.022 44.696C220.637 42.6531 219.767 41.0698 218.538 39.5887C217.77 38.0565 217.258 36.4222 216.9 34.7368C216.491 32.6939 216.593 30.4977 214.75 28.9655C163.411 28.9655 112.072 28.9655 60.7329 28.9655C60.1187 28.9655 59.3509 28.557 58.8902 29.3741C55.9214 37.0861 53.0039 44.6449 50.3934 52.5101C49.5744 55.0127 48.7555 57.5152 47.8853 59.9667C47.8853 60.0178 47.6806 60.7328 47.4758 61.55C46.8104 62.5204 47.0663 64.8697 44.8653 63.5929C44.763 63.4908 44.7118 63.4397 44.6094 63.3886C44.7118 61.2946 37.8529 58.2303 36.2662 57.2088C33.0927 55.1659 29.9704 53.123 26.7968 51.0801C24.2887 49.4457 21.7295 47.9136 19.4261 45.9728C17.3787 44.2363 17.0204 44.032 14.8194 45.6153C7.85817 50.6204 0.641006 55.3191 -6.57616 59.9667C-7.03683 60.171 -7.54869 60.2732 -7.95817 60.4775C-7.08802 58.6388 -7.24157 56.7492 -7.75342 54.8595C-13.9469 54.8595 -20.1915 54.9105 -26.385 54.8595C-27.8694 54.8595 -28.7395 55.1148 -28.3812 56.8002C-28.1253 58.026 -29.4049 60.2221 -26.5385 59.8646C-25.2077 59.7114 -25.003 60.3753 -25.003 61.4989C-25.0542 64.7165 -25.0542 67.9341 -25.003 71.1517C-25.003 71.9688 -25.1565 72.5817 -25.9243 73.0414C-31.7595 76.8208 -37.5434 80.7023 -43.3786 84.5328C-44.607 84.5838 -45.426 85.2989 -45.9891 86.3203C-47.2175 87.1886 -48.4972 88.0568 -49.6744 88.925C-51.21 90.0997 -51.6707 91.6319 -50.8517 93.3684C-50.0327 95.1048 -48.7019 95.0027 -47.2687 94.1345C-46.9104 93.9302 -46.6545 94.2877 -46.4497 94.543C-46.7057 108.486 -46.6545 122.429 -46.5009 136.372C-47.1151 137.24 -48.0365 136.882 -48.8555 136.933C-51.4659 136.985 -54.1276 136.933 -56.738 136.933C-58.9902 136.933 -58.8366 138.568 -58.939 140.151C-59.0414 142.143 -57.7106 141.428 -56.738 141.428C-55.8679 141.479 -55.0489 141.53 -54.1788 141.53C-49.6744 220.5 -54.1788 270.5 -54.1788 292C71.4307 292 316.456 304.306 442.065 304.306C445.392 304.306 448.72 304.255 452.047 304.204C452.558 304.204 453.07 304.204 453.582 304.204C454.452 304.255 457.351 312.276 456.141 304.306C503.795 304.306 551.398 304.306 599.052 304.306C689.804 304.306 780.556 304.306 871.308 304.358C873.662 304.358 876.017 304.358 878.371 304.306C915.379 304.306 952.386 304.306 989.393 304.306C1114.49 304.306 1239.54 304.306 1364.63 304.306C1364.74 304.358 1364.89 304.409 1365.04 304.409C1365.71 304.358 1366.32 304.306 1366.99 304.306C1370.06 304.306 1373.13 304.255 1376.2 304.204C1377.02 304.204 1377.84 304.204 1378.71 304.204C1419.1 304.102 1459.53 304.153 1499.92 304.153C1500.94 304.153 1501.97 304.102 1502.89 304.715C1503.65 304.97 1504.47 304.97 1505.04 304.409C1505.19 304.255 1505.29 304.153 1505.45 304L1509.18 71.2028L1505.45 70.9474C1505.75 70.4367 1506.06 69.8749 1506.37 69.3641C1506.98 68.1895 1506.93 66.1466 1508.16 65.4315ZM46.964 64.4101C46.964 64.4611 46.964 64.5633 46.964 64.6144C46.9128 64.6654 46.8616 64.7165 46.8104 64.7165C46.8616 64.6144 46.9128 64.5122 46.964 64.4101ZM589.838 58.4856C589.838 58.4346 589.889 58.4346 589.941 58.4346C589.941 58.4856 589.889 58.4856 589.889 58.5367C589.838 58.5367 589.838 58.4856 589.838 58.4856Z" fill="black"/>
</svg>
