<svg width="190" height="94" viewBox="0 0 190 94" fill="none" xmlns="http://www.w3.org/2000/svg">
<rect width="190" height="94" fill="white"/>
<path d="M40.1721 44.2112C40.678 43.3117 41.5213 42.5247 42.7019 41.9063C43.8825 41.2879 45.1192 40.9506 46.4685 40.9506V45.7853C44.3322 45.7853 42.8143 46.1788 41.8586 46.9659C40.9029 47.7529 40.4532 49.1022 40.4532 51.0698V60.4582H35V41.1754H40.1721V44.2112Z" fill="#1E1E1E"/>
<path d="M65.6951 50.5077L65.6388 51.8007H51.3594C51.4719 53.3186 51.9778 54.4992 52.8773 55.3425C53.7768 56.1295 54.9012 56.5793 56.2504 56.5793C57.2061 56.5793 58.0494 56.3544 58.7802 55.9046C59.5111 55.4549 60.017 54.8365 60.4106 53.9932L65.3577 54.7241C64.7393 56.6355 63.615 58.1534 61.9847 59.2215C60.3543 60.2896 58.4991 60.8518 56.3066 60.8518C53.1584 60.8518 50.6848 59.9523 48.8296 58.2096C46.9744 56.4668 46.075 53.9932 46.075 50.845C46.075 47.753 47.0307 45.2794 48.8859 43.4804C50.741 41.6815 53.1584 40.782 56.1942 40.782C59.0613 40.782 61.3663 41.6253 63.109 43.2556C64.7956 44.8297 65.6951 47.2471 65.6951 50.5077ZM56.1942 44.5486C53.552 44.5486 52.0341 45.7854 51.5281 48.259H60.3543C60.2419 47.0784 59.7922 46.1227 59.0051 45.5043C58.2743 44.8859 57.3186 44.5486 56.1942 44.5486Z" fill="#1E1E1E"/>
<path d="M78.6814 40.782C80.9864 40.782 82.7853 41.3442 84.0221 42.5247C85.2589 43.7053 85.8773 45.3356 85.8773 47.4719V60.4021H80.4804V48.5963C80.4804 47.3595 80.1431 46.5162 79.5247 45.954C78.9063 45.3919 78.063 45.1108 77.0511 45.1108C76.4889 45.1108 75.9267 45.167 75.4208 45.3356C74.9148 45.5043 74.4651 45.7292 74.0715 46.0665C73.678 46.4038 73.3407 46.9097 73.1158 47.5281C72.891 48.1465 72.7785 48.8774 72.7785 49.7769V60.4021H67.3254V41.1755H72.7223V43.3118C74.1278 41.6253 76.0954 40.782 78.6814 40.782Z" fill="#1E1E1E"/>
<path d="M96.2777 60.4021C94.4225 60.4021 92.9609 59.8961 91.9489 58.828C90.937 57.7598 90.431 56.2982 90.431 54.3867V45.2794H86.6644V41.1193H87.9012C88.9694 41.1193 89.7564 40.8382 90.3186 40.3322C90.8808 39.8263 91.1057 38.8143 91.1057 37.4651V34.9353H95.9966V41.1755H99.9881V45.3356H95.9966V53.8246C95.9966 55.5111 96.7275 56.2982 98.2453 56.2982H99.9881V60.4021H96.2777Z" fill="#1E1E1E"/>
<path d="M105.947 42.8058H102.068L103.98 34.9353H109.545L105.947 42.8058Z" fill="#1E1E1E"/>
<path d="M120.901 40.782C123.206 40.782 125.005 41.3442 126.242 42.5247C127.479 43.7053 128.097 45.3356 128.097 47.4719V60.4021H122.7V48.5963C122.7 47.3595 122.363 46.5162 121.744 45.954C121.126 45.3919 120.283 45.1108 119.271 45.1108C118.709 45.1108 118.147 45.167 117.641 45.3356C117.135 45.5043 116.685 45.7292 116.291 46.0665C115.898 46.4038 115.56 46.9097 115.336 47.5281C115.111 48.1465 114.998 48.8774 114.998 49.7769V60.4021H109.601V41.1755H114.998V43.3118C116.404 41.6253 118.371 40.782 120.901 40.782Z" fill="#1E1E1E"/>
<circle cx="139" cy="56" r="5" fill="#FF0B0B"/>
</svg>
