<svg width="22" height="18" viewBox="0 0 22 18" fill="none" xmlns="http://www.w3.org/2000/svg">
<path d="M22 0.0382234C21.0424 0.713701 19.9821 1.23033 18.86 1.56822C18.2577 0.875734 17.4573 0.384915 16.567 0.16215C15.6767 -0.0606162 14.7395 -0.00458094 13.8821 0.322677C13.0247 0.649935 12.2884 1.23262 11.773 1.99194C11.2575 2.75126 10.9877 3.65056 11 4.56822V5.56822C9.24263 5.61379 7.50127 5.22404 5.93101 4.43367C4.36074 3.6433 3.01032 2.47686 2 1.03822C2 1.03822 -2 10.0382 7 14.0382C4.94053 15.4362 2.48716 16.1372 0 16.0382C9 21.0382 20 16.0382 20 4.53822C19.9991 4.25968 19.9723 3.98182 19.92 3.70822C20.9406 2.70172 21.6608 1.43094 22 0.0382234Z" fill="#FEFEFE"/>
</svg>
