<svg width="478" height="76" viewBox="0 0 478 76" fill="none" xmlns="http://www.w3.org/2000/svg">
<path d="M597.909 36.3708C599.272 35.6584 599.082 34.6041 599.177 33.5498C599.177 33.4073 599.113 33.2934 599.05 33.1794C597.973 32.752 598.068 31.9256 598.258 31.0993C598.131 30.4439 598.29 29.703 597.497 29.2471C594.899 23.1777 592.238 17.1083 589.703 11.0105C589.291 9.98466 588.752 9.69971 587.548 9.69971C578.613 9.7567 569.646 9.72821 560.71 9.72821C559.982 9.72821 559.189 9.89917 558.809 9.10132C558.302 7.90454 557.225 7.30615 556.053 6.76475C556.021 6.73626 555.957 6.73626 555.926 6.70776C555.039 5.9669 554.246 4.79861 553.232 4.62765C552.028 4.39969 551.521 6.08088 550.381 6.53679C549.145 6.93572 548.448 7.84755 547.783 8.78788C547.276 9.58573 546.515 9.7567 545.533 9.7567C536.471 9.72821 527.409 9.7567 518.315 9.7567C517.649 9.7567 517.047 9.64272 516.699 10.4691C514.766 15.1992 512.77 19.9293 510.774 24.631C510.393 24.2035 510.045 23.7191 509.665 23.2632C509.633 22.9213 509.411 22.7503 509.063 22.6078C507.035 20.4992 504.975 18.3906 502.947 16.3105C502.63 15.9971 502.44 15.6266 502.44 15.1707C502.472 12.2357 502.44 9.30079 502.44 6.36583C502.44 5.90991 502.504 5.65346 503.169 5.53948C504.5 5.28303 503.676 4.25721 503.835 3.57334C503.993 2.86097 503.391 2.86097 502.821 2.86097C500.666 2.86097 498.48 2.94646 496.325 2.83248C494.741 2.74699 494.139 3.17441 494.392 4.59915C494.487 5.14055 494.392 5.65346 495.279 5.56797C495.723 5.53948 495.786 5.82443 495.786 6.13787C495.786 6.90723 495.786 7.67658 495.786 8.78788C494.329 7.22067 493.156 5.9384 491.984 4.68464C491.857 4.42818 491.731 4.22872 491.445 4.08624C491.16 3.85829 490.812 3.65882 490.717 3.28839C490.526 2.97495 490.336 2.57602 490.083 2.34807C489.227 1.6072 488.784 0.324938 487.231 0.410422C486.851 0.438917 485.33 2.57602 485.013 2.91796C484.284 3.68732 483.492 4.37119 482.732 5.11206C480.894 6.85024 479.246 8.75939 477.504 10.5546C473.955 14.2589 470.469 18.0202 466.984 21.753C465.336 23.5197 463.657 25.2863 462.041 27.0815C461.566 27.5944 461.344 27.4235 460.995 27.0245C458.651 24.232 456.338 21.468 453.993 18.6756C453.834 18.3336 453.771 17.9347 453.296 17.8207C453.011 17.5358 452.662 17.2793 452.472 16.9659C451.743 15.7406 450.666 15.3987 449.113 15.4557C445.691 15.5696 442.269 15.4841 438.815 15.4841C438.182 15.4841 437.802 15.3987 437.833 14.7433C437.865 14.2589 437.738 13.7745 438.594 13.803C440.21 13.8599 439.322 12.7202 439.449 12.1503C439.639 11.2669 438.815 11.4949 438.277 11.4949C435.362 11.4949 432.478 11.4949 429.563 11.4949C429.056 11.4949 428.201 11.2669 428.391 12.1218C428.518 12.7202 427.662 13.8315 429.246 13.7745C429.817 13.7745 429.912 14.0024 429.975 14.4298C430.165 15.5981 429.31 15.4557 428.518 15.4557C413.15 15.4557 397.814 15.4557 382.447 15.4272C380.514 15.4272 379.025 17.6497 377.789 18.7895C376.648 19.8723 375.507 20.9266 374.62 22.0949L366.414 30.7003C365.685 30.2729 364.924 29.8455 364.196 29.4181C362.643 28.5063 361.059 27.6514 359.633 26.5686C358.365 25.5998 358.144 25.4858 356.781 26.3691C352.472 29.1616 348.004 31.7831 343.536 34.3762C343.251 34.4901 342.935 34.5471 342.681 34.6611C343.22 33.6353 343.125 32.581 342.808 31.5267C338.974 31.5267 335.108 31.5552 331.274 31.5267C330.355 31.5267 329.817 31.6692 330.038 32.6095C330.197 33.2934 329.405 34.5186 331.179 34.3192C332.003 34.2337 332.13 34.6041 332.13 35.231C332.098 37.0262 332.098 38.8214 332.13 40.6165C332.13 41.0724 332.035 41.4144 331.559 41.6708C327.947 43.7794 324.367 45.945 320.755 48.0821C320.374 48.1106 320.057 48.1961 319.772 48.3671C319.772 46.6574 319.772 44.9192 319.772 43.2095C319.772 42.2692 319.836 41.2434 320.311 40.4455H326.395L319.899 24.631C319.994 23.8046 319.582 23.0922 319.012 22.4369L317.839 19.5874V19.5589C317.586 18.4191 317.649 17.1938 316.509 16.339C284.728 16.339 252.947 16.339 221.166 16.339C220.786 16.339 220.311 16.111 220.026 16.5669L207.668 40.4171H212.991C213.847 40.6165 214.544 41.1009 215.083 42.1837C215.59 43.238 216.097 44.1499 216.097 45.2897C216.097 54.7214 216.097 64.1532 216.097 73.585C216.097 76.064 215.241 77.1753 213.023 77.4887C212.96 77.2893 212.896 77.1183 212.896 76.9188C212.833 76.3205 212.199 76.3204 211.661 76.3204C208.936 76.3204 206.179 76.292 203.454 76.3489C202.567 76.3774 202.155 76.235 202.155 75.2946C202.187 66.8317 202.187 58.3687 202.187 49.9058C202.187 49.2219 202.25 48.7945 203.201 48.994C204.436 49.2219 204.785 48.595 204.753 47.6262C204.721 46.9139 204.436 46.287 203.961 45.7171C203.391 44.7198 202.282 45.0047 201.363 44.7768C197.18 44.0929 192.966 43.409 188.752 42.7821C187.96 42.6681 188.055 42.2122 188.055 41.7563C188.055 39.9611 188.086 38.166 188.023 36.3423C187.991 35.4875 188.023 34.8321 189.291 35.0315C190.209 35.174 190.114 34.5471 190.114 34.0342C190.114 33.5498 190.273 33.0084 189.291 33.0084C185.013 33.0369 180.735 33.0369 176.49 33.0084C175.697 33.0084 175.602 33.3789 175.697 33.8918C175.761 34.3477 175.38 35.117 176.363 35.0031C177.789 34.8321 177.884 35.516 177.82 36.4848C177.757 37.5676 177.725 38.6789 177.82 39.7617C177.884 40.7305 177.599 40.9585 176.49 40.759C172.37 40.0181 168.188 39.4482 164.069 38.6504C161.756 38.223 159.538 37.8525 157.383 39.0208C155.735 39.1918 154.341 39.9326 152.915 40.5595C151.743 41.0439 150.38 41.1864 149.462 42.1552C149.24 42.2407 149.05 42.3547 148.828 42.4402C147.212 42.7251 145.659 43.181 144.424 44.2069C143.568 44.5773 142.744 44.9477 141.889 45.2897C134.918 48.1106 127.915 50.9316 120.944 53.7526C120.691 53.7241 120.374 53.7241 120.374 53.4107C120.374 51.7865 120.374 50.1908 120.374 48.5666C120.374 48.2246 120.533 48.0252 120.913 48.0536C122.022 48.0536 122.877 47.3983 123.891 47.1988C125.064 46.9708 125 46.5434 124.493 45.7171C119.835 37.7955 115.178 29.8455 110.615 21.867C110.076 20.9551 109.411 20.8697 108.492 20.8697C90.8747 20.8982 73.2892 20.8697 55.6719 20.8981C54.8164 20.8981 53.9292 20.8981 53.0737 20.8981C54.9114 20.8412 54.3411 19.6159 54.3411 18.7895C54.3411 17.6782 53.3589 18.1627 52.8202 18.1627C50.5705 18.1057 48.2892 18.1342 46.0078 18.1342C43.4095 18.1342 43.4095 18.1342 43.6947 20.5562C43.7898 20.6987 43.9799 20.6417 44.1383 20.7272C43.9799 20.7557 43.8214 20.6987 43.6947 20.8412C41.6985 20.8697 39.7023 20.9266 37.7061 20.8697C36.7238 20.8412 36.2169 21.0976 35.7733 21.8955C34.2207 24.6025 32.6047 27.2525 30.9887 29.931C30.7036 30.2159 30.5452 30.5579 30.4501 30.9283V31.0138L30.355 31.0708C29.753 31.3557 29.4995 31.8116 29.5312 32.41C29.2144 31.8116 29.1193 31.1278 28.6123 30.6149C28.6123 30.5294 28.644 30.4439 28.644 30.3584C28.5173 29.703 28.6757 28.9622 27.8835 28.5063C25.2853 22.4369 22.6237 16.3675 20.0889 10.2696C19.6769 9.2438 19.1383 8.95885 17.9343 8.95885C8.9989 9.01584 0.0317993 8.98734 -8.90356 8.98734C-9.12537 8.98734 -9.34714 9.01584 -9.56894 9.01584L-16.5398 2.31957L-23.479 8.98734C-23.6691 9.01584 -23.8909 9.01584 -24.1127 9.01584C-33.1748 8.98734 -42.2369 9.01584 -51.3307 9.01584C-51.9961 9.01584 -52.5981 8.90186 -52.9467 9.72821C-55.133 15.0567 -57.3827 20.3568 -59.6007 25.6568C-61.0266 25.2863 -61.6285 24.1466 -62.4207 23.2062C-62.4524 22.8643 -62.6742 22.6933 -63.0227 22.5508C-65.0506 20.4422 -67.1102 18.3336 -69.1381 16.2535C-69.4549 15.9401 -69.645 15.5696 -69.645 15.1137C-69.6133 12.1788 -69.645 9.2438 -69.645 6.30884C-69.645 5.85292 -69.5817 5.59647 -68.9163 5.48249C-67.5855 5.22604 -68.4093 4.20022 -68.2509 3.51635C-68.0924 2.80398 -68.6945 2.80398 -69.2648 2.80398C-71.4195 2.80398 -73.6058 2.88947 -75.7604 2.77549C-77.3447 2.69 -77.9467 3.11742 -77.6932 4.54216C-77.5981 5.08356 -77.6932 5.59647 -76.806 5.51098C-76.3624 5.48249 -76.299 5.76744 -76.299 6.08088C-76.299 6.85024 -76.299 7.6196 -76.299 8.73089C-77.7566 7.16368 -78.929 5.88141 -80.1013 4.62765C-80.2281 4.37119 -80.3548 4.17173 -80.64 4.02926C-80.9251 3.8013 -81.2737 3.60183 -81.3687 3.2314C-81.5589 2.91796 -81.749 2.51903 -82.0025 2.29108C-82.858 1.55021 -83.3016 0.267948 -84.8542 0.353433C-85.2344 0.381927 -86.7553 2.51903 -87.0722 2.86097C-87.8009 3.63033 -88.5931 4.3142 -89.3535 5.05507C-91.1913 6.79325 -92.839 8.7024 -94.5817 10.4976C-98.1305 14.2019 -101.616 17.9632 -105.101 21.696C-106.749 23.4627 -108.428 25.2294 -110.044 27.0245C-110.52 27.5374 -110.741 27.3665 -111.09 26.9675C-113.435 24.175 -115.748 21.4111 -118.092 18.6186C-118.251 18.2766 -118.314 17.8777 -118.79 17.7637C-119.075 17.4788 -119.423 17.2223 -119.613 16.9089C-120.342 15.6836 -121.419 15.3417 -122.972 15.3987C-126.394 15.5126 -129.816 15.4272 -133.27 15.4272C-133.904 15.4272 -134.284 15.3417 -134.252 14.6863C-134.221 14.2019 -134.347 13.7175 -133.492 13.746C-131.876 13.803 -132.763 12.6632 -132.636 12.0933C-132.446 11.2099 -133.27 11.4379 -133.809 11.4379C-136.724 11.4379 -139.607 11.4379 -142.522 11.4379C-143.029 11.4379 -143.885 11.2099 -143.695 12.0648C-143.568 12.6632 -144.423 13.7745 -142.839 13.7175C-142.269 13.7175 -142.174 13.9454 -142.11 14.3729C-141.92 15.5411 -142.776 15.3987 -143.568 15.3987C-158.935 15.3987 -174.271 15.3987 -189.639 15.3702C-191.572 15.3702 -193.061 17.5928 -194.297 18.7325C-196.546 20.8127 -198.669 22.8928 -199.081 25.6283C-199.208 25.3433 -199.366 25.0584 -199.493 24.8019C-199.113 23.6621 -199.651 22.7788 -200.412 21.9525C-200.887 21.0976 -201.204 20.1858 -201.426 19.2455C-201.679 18.1057 -201.616 16.8804 -202.757 16.0255C-234.537 16.0255 -266.318 16.0255 -298.099 16.0255C-298.479 16.0255 -298.954 15.7976 -299.24 16.2535C-301.077 20.5562 -302.884 24.7734 -304.499 29.1616C-305.006 30.5579 -305.513 31.9541 -306.052 33.3219C-306.052 33.3504 -306.179 33.7493 -306.306 34.2052C-306.717 34.7466 -306.559 36.0574 -307.922 35.345C-307.985 35.288 -308.017 35.2595 -308.08 35.231C-308.017 34.0627 -312.262 32.353 -313.245 31.7831C-315.209 30.6434 -317.142 29.5036 -319.107 28.3638C-320.659 27.4519 -322.243 26.5971 -323.669 25.5143C-324.937 24.5455 -325.159 24.4315 -326.521 25.3148C-330.83 28.1073 -335.298 30.7288 -339.766 33.3219C-340.051 33.4358 -340.368 33.4928 -340.621 33.6068C-340.083 32.581 -340.178 31.5267 -340.494 30.4724C-344.328 30.4724 -348.194 30.5009 -352.028 30.4724C-352.947 30.4724 -353.486 30.6149 -353.264 31.5552C-353.105 32.2391 -353.897 33.4643 -352.123 33.2649C-351.299 33.1794 -351.173 33.5498 -351.173 34.1767C-351.204 35.9719 -351.204 37.767 -351.173 39.5622C-351.173 40.0181 -351.268 40.3601 -351.743 40.6165C-355.355 42.7251 -358.936 44.8907 -362.548 47.0278C-363.308 47.0563 -363.815 47.4553 -364.164 48.0252C-364.924 48.5096 -365.716 48.994 -366.445 49.4784C-367.396 50.1338 -367.681 50.9886 -367.174 51.9574C-366.667 52.9263 -365.843 52.8693 -364.956 52.3849C-364.734 52.2709 -364.576 52.4703 -364.449 52.6128C-364.607 60.3919 -364.576 68.1709 -364.481 75.95C-364.861 76.4344 -365.431 76.235 -365.938 76.2635C-367.554 76.292 -369.202 76.2635 -370.818 76.2635C-372.212 76.2635 -372.117 77.1753 -372.18 78.0586C-372.244 79.1699 -371.42 78.771 -370.818 78.771C-370.279 78.7995 -369.772 78.828 -369.233 78.828C-345.501 78.828 -321.768 78.828 -298.004 78.828C-220.247 78.828 -142.49 78.828 -64.7338 78.828C-62.6742 78.828 -60.6146 78.7995 -58.555 78.771C-58.2382 78.771 -57.9213 78.771 -57.6045 78.771C-57.0658 78.7995 -56.5588 78.828 -56.0202 78.828C-26.5208 78.828 2.9469 78.828 32.4463 78.828C88.625 78.828 144.804 78.828 200.983 78.8565C202.44 78.8565 203.898 78.8565 205.355 78.828C228.264 78.828 251.173 78.828 274.081 78.828C351.521 78.828 428.93 78.828 506.369 78.828C506.433 78.8565 506.528 78.885 506.623 78.885C507.035 78.8565 507.415 78.828 507.827 78.828C509.728 78.828 511.629 78.7995 513.53 78.771C514.037 78.771 514.544 78.771 515.083 78.771C540.083 78.714 565.115 78.7425 590.115 78.7425C590.748 78.7425 591.382 78.714 591.952 79.0559C592.428 79.1984 592.935 79.1984 593.283 78.885C593.378 78.7995 593.442 78.7425 593.537 78.657L598.543 39.5907L596.23 39.4482C596.42 39.1633 596.61 38.8498 596.8 38.5649C597.181 37.9095 597.149 36.7697 597.909 36.3708ZM-306.622 35.8009C-306.622 35.8294 -306.622 35.8864 -306.622 35.9149C-306.654 35.9434 -306.686 35.9719 -306.717 35.9719C-306.686 35.9149 -306.654 35.8579 -306.622 35.8009ZM29.4362 32.4955C29.4362 32.467 29.4679 32.467 29.4995 32.467C29.4995 32.4955 29.4678 32.4955 29.4678 32.524C29.4361 32.524 29.4362 32.4955 29.4362 32.4955Z" fill="black"/>
</svg>
